<?xml version="1.0" standalone="no"?>
<!DOCTYPE svg PUBLIC "-//W3C//DTD SVG 20010904//EN"
 "http://www.w3.org/TR/2001/REC-SVG-20010904/DTD/svg10.dtd">
<svg version="1.0" xmlns="http://www.w3.org/2000/svg"
 width="700.000000pt" height="700.000000pt" viewBox="0 0 700.000000 700.000000"
 preserveAspectRatio="xMidYMid meet">
<metadata>
Created by potrace 1.14, written by Peter Selinger 2001-2017
</metadata>
<g transform="translate(0.000000,700.000000) scale(0.100000,-0.100000)"
fill="#000000" stroke="none">
<path d="M195 5731 c-56 -34 -85 -78 -85 -128 0 -156 213 -211 282 -73 27 53
23 100 -12 148 -51 71 -123 91 -185 53z"/>
<path d="M569 5727 c-18 -12 -44 -38 -57 -57 -61 -89 19 -220 133 -220 84 0
145 63 145 148 0 73 -78 152 -150 152 -22 0 -51 -9 -71 -23z"/>
<path d="M950 5728 c-76 -52 -101 -135 -58 -198 34 -50 83 -80 132 -80 87 0
146 62 146 152 0 39 -6 54 -31 83 -60 68 -129 83 -189 43z"/>
<path d="M1345 5735 c-44 -24 -60 -41 -80 -85 -42 -93 36 -200 147 -200 75 0
125 45 143 128 9 41 -25 113 -67 143 -40 29 -104 35 -143 14z"/>
<path d="M1713 5724 c-50 -33 -76 -75 -76 -123 0 -77 59 -140 139 -149 82 -9
147 41 159 122 9 57 -15 109 -68 147 -52 37 -99 38 -154 3z"/>
<path d="M2105 5731 c-55 -34 -78 -67 -83 -120 -15 -158 209 -223 280 -81 25
48 23 100 -5 141 -49 74 -130 99 -192 60z"/>
<path d="M2479 5727 c-77 -52 -100 -133 -56 -198 50 -74 129 -98 203 -63 42
20 74 77 74 132 0 73 -78 152 -150 152 -22 0 -51 -9 -71 -23z"/>
<path d="M2872 5733 c-18 -9 -45 -32 -60 -51 -92 -120 54 -282 194 -216 103
49 99 204 -7 263 -44 25 -82 26 -127 4z"/>
<path d="M3270 5743 c-66 -28 -117 -108 -104 -167 8 -40 47 -92 84 -111 41
-21 109 -19 147 5 34 21 56 56 68 108 9 41 -25 113 -67 143 -30 22 -100 34
-128 22z"/>
<path d="M3623 5724 c-50 -33 -76 -75 -76 -123 0 -145 200 -206 279 -85 11 16
18 47 18 79 1 42 -4 59 -27 88 -54 71 -124 86 -194 41z"/>
<path d="M4009 5727 c-105 -70 -106 -191 -2 -254 100 -60 223 10 223 128 0 70
-79 149 -150 149 -22 0 -51 -9 -71 -23z"/>
<path d="M4389 5727 c-47 -32 -79 -83 -79 -127 0 -73 79 -150 154 -150 84 0
146 62 146 146 0 75 -77 154 -150 154 -22 0 -51 -9 -71 -23z"/>
<path d="M4782 5733 c-18 -9 -45 -32 -60 -51 -93 -122 60 -287 198 -213 101
54 95 201 -11 260 -44 25 -82 26 -127 4z"/>
<path d="M5180 5742 c-70 -34 -117 -107 -105 -164 23 -105 145 -161 233 -108
34 21 72 87 72 125 0 36 -37 101 -70 125 -33 23 -103 35 -130 22z"/>
<path d="M5540 5729 c-53 -30 -80 -76 -80 -133 0 -150 180 -200 272 -76 46 63
27 149 -45 201 -48 35 -97 37 -147 8z"/>
<path d="M210 5359 c-57 -23 -100 -85 -100 -144 0 -81 68 -145 153 -145 63 0
102 24 128 78 58 119 -61 258 -181 211z"/>
<path d="M585 5355 c-87 -47 -116 -122 -79 -202 51 -107 219 -112 268 -9 33
71 12 149 -55 198 -36 27 -97 33 -134 13z"/>
<path d="M958 5350 c-72 -39 -106 -125 -75 -187 9 -16 32 -44 52 -62 30 -26
44 -31 86 -31 93 0 149 53 149 141 0 112 -118 190 -212 139z"/>
<path d="M1333 5345 c-53 -32 -88 -99 -79 -150 8 -40 47 -90 87 -110 65 -34
162 -8 192 52 36 70 29 123 -21 176 -58 62 -112 72 -179 32z"/>
<path d="M1735 5356 c-70 -32 -112 -107 -94 -170 22 -79 86 -122 169 -114 75
7 130 69 130 144 0 43 -46 112 -90 134 -45 23 -73 25 -115 6z"/>
<path d="M2120 5359 c-57 -23 -100 -85 -100 -144 0 -81 68 -145 153 -145 63 0
102 24 128 78 58 119 -61 258 -181 211z"/>
<path d="M2495 5355 c-87 -47 -116 -122 -79 -202 51 -107 218 -113 267 -10 34
72 13 150 -54 199 -36 27 -97 33 -134 13z"/>
<path d="M2868 5350 c-79 -42 -110 -135 -66 -200 35 -51 83 -80 135 -80 89 0
143 55 143 145 0 42 -5 57 -32 89 -53 65 -114 80 -180 46z"/>
<path d="M3242 5343 c-54 -35 -87 -99 -78 -148 13 -70 83 -125 158 -125 81 0
140 61 142 146 1 50 -33 104 -85 133 -49 28 -87 26 -137 -6z"/>
<path d="M3645 5356 c-43 -19 -85 -68 -94 -109 -14 -62 21 -132 83 -164 43
-23 129 -13 162 18 32 29 54 78 54 116 0 43 -41 105 -85 130 -45 26 -77 28
-120 9z"/>
<path d="M4030 5359 c-57 -23 -100 -85 -100 -144 0 -152 228 -204 284 -65 24
60 20 101 -13 147 -45 62 -111 86 -171 62z"/>
<path d="M4405 5355 c-44 -24 -66 -46 -81 -82 -42 -99 30 -203 141 -203 88 0
145 58 145 148 0 100 -122 182 -205 137z"/>
<path d="M4769 5342 c-105 -67 -99 -200 12 -257 40 -21 108 -19 146 5 68 41
87 142 38 206 -59 77 -122 92 -196 46z"/>
<path d="M5175 5356 c-41 -18 -82 -61 -95 -101 -29 -89 50 -185 152 -185 156
0 197 201 57 279 -42 24 -71 26 -114 7z"/>
<path d="M5554 5356 c-17 -8 -45 -31 -62 -52 -27 -32 -32 -47 -32 -89 0 -92
54 -145 149 -145 42 0 56 5 86 31 20 18 43 46 52 62 32 62 -7 156 -80 191 -42
19 -71 20 -113 2z"/>
<path d="M5940 5359 c-114 -48 -135 -207 -35 -269 98 -61 235 15 235 130 0 93
-116 174 -200 139z"/>
<path d="M200 4968 c-121 -61 -120 -204 0 -266 49 -25 89 -23 143 5 32 16 66
82 67 127 0 47 -44 111 -93 135 -54 26 -63 26 -117 -1z"/>
<path d="M583 4971 c-113 -52 -124 -195 -20 -260 53 -32 88 -36 140 -13 56 25
79 58 85 123 4 41 0 56 -22 90 -26 39 -90 79 -126 79 -8 0 -34 -9 -57 -19z"/>
<path d="M975 4976 c-132 -61 -137 -214 -10 -276 99 -48 205 19 205 130 0 52
-21 92 -64 125 -42 32 -91 40 -131 21z"/>
<path d="M1360 4979 c-67 -27 -118 -110 -105 -170 10 -46 70 -107 116 -119 83
-23 169 33 183 118 7 48 -2 76 -40 121 -44 53 -101 71 -154 50z"/>
<path d="M1751 4983 c-33 -7 -107 -83 -114 -120 -10 -49 10 -99 54 -136 46
-40 87 -51 138 -37 64 17 111 80 111 148 0 42 -48 109 -96 132 -40 20 -49 21
-93 13z"/>
<path d="M2110 4968 c-121 -61 -120 -204 0 -266 74 -37 154 -12 191 60 40 79
8 167 -76 208 -52 25 -61 25 -115 -2z"/>
<path d="M2492 4969 c-51 -26 -82 -67 -89 -119 -7 -54 12 -97 60 -131 55 -40
95 -45 150 -21 56 25 79 58 85 123 4 41 0 56 -22 90 -26 38 -89 78 -126 79 -8
0 -34 -10 -58 -21z"/>
<path d="M2885 4976 c-42 -21 -59 -36 -84 -76 -27 -45 -26 -85 2 -134 58 -103
198 -110 257 -13 71 116 -58 279 -175 223z"/>
<path d="M3270 4979 c-38 -15 -88 -68 -101 -106 -15 -46 -3 -89 38 -134 64
-71 161 -73 221 -5 54 61 51 139 -6 200 -46 49 -101 65 -152 45z"/>
<path d="M3665 4983 c-30 -8 -71 -40 -95 -74 -26 -36 -29 -109 -6 -144 69
-105 215 -105 266 0 11 23 20 55 20 71 0 44 -48 111 -96 134 -41 20 -53 22
-89 13z"/>
<path d="M4020 4968 c-121 -61 -120 -204 0 -266 74 -37 154 -12 191 60 40 79
7 172 -75 209 -53 24 -63 24 -116 -3z"/>
<path d="M4402 4969 c-109 -55 -122 -189 -23 -255 54 -35 91 -39 144 -16 55
24 79 58 85 121 5 57 -14 99 -60 135 -49 36 -94 41 -146 15z"/>
<path d="M4795 4975 c-42 -20 -59 -35 -84 -75 -27 -45 -27 -82 1 -132 30 -53
79 -82 139 -82 161 0 194 226 42 290 -40 17 -60 17 -98 -1z"/>
<path d="M5180 4979 c-38 -15 -88 -68 -101 -106 -15 -46 -3 -89 38 -134 83
-92 222 -62 254 53 14 53 4 92 -34 135 -49 55 -103 73 -157 52z"/>
<path d="M5575 4983 c-32 -8 -84 -51 -100 -83 -21 -41 -19 -109 5 -147 21 -36
58 -58 110 -68 73 -13 169 71 170 149 0 84 -106 170 -185 149z"/>
<path d="M5933 4971 c-23 -11 -52 -35 -67 -57 -84 -123 43 -275 178 -215 63
27 100 86 94 145 -7 57 -40 104 -92 127 -51 23 -61 23 -113 0z"/>
<path d="M6314 4970 c-149 -75 -107 -284 57 -284 36 0 56 7 83 28 88 67 89
175 2 241 -47 36 -92 41 -142 15z"/>
<path d="M992 4599 c-67 -14 -128 -96 -119 -160 19 -142 204 -186 277 -66 66
108 -35 253 -158 226z"/>
<path d="M1366 4595 c-125 -43 -151 -192 -46 -261 54 -36 100 -41 152 -15 54
26 80 68 81 131 2 98 -98 175 -187 145z"/>
<path d="M2524 4600 c-92 -20 -151 -130 -110 -208 55 -107 199 -119 263 -23
71 105 -31 257 -153 231z"/>
<path d="M2900 4598 c-70 -19 -126 -95 -117 -159 19 -142 204 -186 277 -66 67
109 -38 256 -160 225z"/>
<path d="M3274 4594 c-50 -17 -101 -72 -109 -118 -9 -47 25 -118 69 -146 50
-30 90 -35 141 -16 87 34 119 145 62 219 -46 61 -102 82 -163 61z"/>
<path d="M4434 4600 c-42 -9 -79 -38 -103 -81 -38 -67 -22 -134 44 -185 98
-74 235 -8 235 114 0 94 -88 171 -176 152z"/>
<path d="M4806 4595 c-65 -23 -116 -87 -116 -146 0 -64 88 -149 154 -149 49 0
112 37 131 76 57 121 -50 260 -169 219z"/>
<path d="M5184 4594 c-48 -16 -100 -73 -109 -120 -8 -47 25 -116 69 -144 50
-30 90 -35 141 -16 87 34 119 145 62 219 -46 61 -102 82 -163 61z"/>
<path d="M5965 4600 c-141 -30 -171 -218 -45 -283 68 -35 167 0 205 73 51 100
-51 234 -160 210z"/>
<path d="M6342 4599 c-69 -14 -127 -95 -119 -166 6 -58 30 -91 84 -115 75 -33
140 -12 191 62 68 101 -34 246 -156 219z"/>
<path d="M6714 4594 c-50 -17 -101 -72 -110 -119 -9 -51 19 -121 60 -146 38
-23 87 -33 121 -25 39 10 103 74 114 112 29 106 -82 213 -185 178z"/>
<path d="M183 4579 c-82 -52 -97 -158 -33 -224 78 -81 199 -66 244 29 32 67
16 128 -49 185 -29 25 -44 31 -83 31 -30 0 -58 -8 -79 -21z"/>
<path d="M559 4575 c-91 -67 -92 -174 -2 -242 47 -36 126 -39 170 -7 64 47 82
144 38 204 -55 75 -140 93 -206 45z"/>
<path d="M1713 4580 c-58 -35 -88 -105 -72 -164 12 -44 77 -103 124 -112 51
-9 121 19 146 60 44 72 33 142 -32 200 -33 31 -46 36 -87 36 -29 0 -59 -7 -79
-20z"/>
<path d="M2093 4579 c-96 -61 -96 -182 0 -253 65 -48 181 -16 213 60 29 69 13
127 -51 183 -29 25 -44 31 -83 31 -30 0 -58 -8 -79 -21z"/>
<path d="M3625 4582 c-59 -36 -88 -100 -74 -161 10 -47 74 -107 123 -117 52
-9 122 19 147 60 44 72 33 142 -32 200 -33 31 -46 36 -87 36 -28 0 -59 -7 -77
-18z"/>
<path d="M4003 4579 c-71 -45 -94 -135 -50 -199 32 -48 69 -72 118 -77 83 -8
148 48 156 134 4 40 0 55 -23 89 -15 23 -39 49 -54 58 -39 22 -108 20 -147 -5z"/>
<path d="M5532 4580 c-92 -56 -97 -197 -8 -255 87 -57 216 3 233 110 8 47 -12
89 -60 130 -34 29 -49 35 -86 35 -28 0 -59 -8 -79 -20z"/>
<path d="M210 4213 c-88 -34 -128 -146 -78 -219 87 -127 278 -74 278 77 0 92
-116 174 -200 142z"/>
<path d="M569 4197 c-103 -70 -103 -184 0 -254 92 -62 221 10 221 123 0 75
-77 154 -150 154 -22 0 -51 -9 -71 -23z"/>
<path d="M950 4198 c-54 -37 -75 -73 -75 -128 0 -111 121 -183 222 -132 48 25
73 71 73 134 0 112 -131 186 -220 126z"/>
<path d="M1334 4201 c-108 -66 -103 -211 9 -265 124 -58 251 59 201 185 -35
85 -137 124 -210 80z"/>
<path d="M5542 4203 c-103 -51 -111 -206 -13 -261 102 -57 226 13 226 128 0
109 -115 181 -213 133z"/>
<path d="M5919 4197 c-50 -33 -79 -82 -79 -132 0 -78 70 -145 151 -145 70 0
149 79 149 150 0 71 -79 150 -150 150 -22 0 -51 -9 -71 -23z"/>
<path d="M6299 4197 c-74 -50 -98 -126 -61 -196 23 -47 61 -72 114 -78 54 -6
92 11 137 62 103 118 -60 300 -190 212z"/>
<path d="M6684 4201 c-73 -44 -99 -120 -66 -194 24 -54 57 -78 116 -84 121
-14 210 119 147 221 -44 71 -132 97 -197 57z"/>
<path d="M195 3821 c-57 -34 -85 -77 -85 -129 0 -156 212 -210 283 -72 63 122
-84 271 -198 201z"/>
<path d="M569 3817 c-18 -12 -44 -38 -57 -57 -61 -89 19 -220 133 -220 84 0
145 63 145 148 0 73 -78 152 -150 152 -22 0 -51 -9 -71 -23z"/>
<path d="M965 3824 c-62 -32 -95 -82 -95 -142 0 -65 83 -142 152 -142 90 0
148 58 148 148 0 43 -5 57 -31 87 -57 64 -114 80 -174 49z"/>
<path d="M1360 3833 c-36 -15 -78 -56 -95 -92 -42 -94 36 -201 147 -201 75 0
125 45 143 128 9 41 -25 113 -67 143 -30 22 -100 34 -128 22z"/>
<path d="M5545 3821 c-59 -35 -85 -77 -85 -134 0 -64 24 -107 73 -130 127 -60
269 66 211 188 -38 81 -133 117 -199 76z"/>
<path d="M5919 3817 c-48 -32 -79 -83 -79 -129 0 -93 71 -156 166 -145 37 4
54 13 87 45 73 73 59 168 -32 229 -20 14 -49 23 -71 23 -22 0 -51 -9 -71 -23z"/>
<path d="M6320 3829 c-84 -34 -122 -130 -82 -209 52 -104 199 -107 261 -6 70
113 -56 264 -179 215z"/>
<path d="M6692 3823 c-56 -27 -87 -78 -86 -138 0 -32 7 -63 18 -79 44 -68 141
-87 209 -41 97 66 91 195 -11 253 -47 26 -85 28 -130 5z"/>
<path d="M205 3446 c-17 -7 -45 -30 -63 -50 -42 -48 -45 -113 -7 -169 69 -101
202 -89 261 24 34 67 5 150 -66 187 -50 25 -81 27 -125 8z"/>
<path d="M585 3444 c-116 -60 -128 -188 -24 -260 95 -66 217 -1 227 121 3 40
-1 57 -20 85 -42 63 -121 87 -183 54z"/>
<path d="M958 3440 c-102 -54 -115 -165 -27 -244 68 -62 160 -48 214 31 50 74
24 176 -55 215 -45 23 -86 22 -132 -2z"/>
<path d="M1339 3437 c-58 -31 -95 -96 -85 -151 15 -77 112 -144 180 -125 47
14 79 41 104 90 38 73 11 153 -63 189 -53 26 -82 25 -136 -3z"/>
<path d="M5545 3446 c-54 -24 -78 -60 -82 -124 -6 -85 37 -143 119 -161 46
-10 85 3 124 40 80 78 63 188 -36 239 -45 23 -83 25 -125 6z"/>
<path d="M5936 3450 c-153 -48 -109 -290 53 -292 74 -1 151 76 151 151 0 95
-110 171 -204 141z"/>
<path d="M6303 3441 c-50 -23 -74 -57 -80 -114 -6 -53 12 -91 62 -136 91 -80
235 -5 235 122 0 38 -6 53 -32 83 -34 39 -82 64 -120 64 -13 0 -42 -9 -65 -19z"/>
<path d="M6680 3438 c-56 -29 -87 -92 -75 -154 9 -49 78 -119 124 -126 99 -15
196 91 170 185 -16 58 -93 117 -153 117 -12 0 -42 -10 -66 -22z"/>
<path d="M200 3058 c-137 -70 -110 -250 42 -283 69 -16 168 75 168 154 0 44
-35 108 -68 125 -53 27 -94 29 -142 4z"/>
<path d="M580 3058 c-63 -32 -93 -80 -87 -140 5 -62 43 -111 102 -133 43 -17
47 -17 91 0 30 11 55 31 75 58 91 125 -44 285 -181 215z"/>
<path d="M988 3070 c-66 -20 -118 -84 -118 -146 0 -47 45 -110 95 -134 54 -26
92 -22 142 16 43 33 63 73 63 126 0 58 -30 104 -83 128 -46 21 -58 22 -99 10z"/>
<path d="M1366 3070 c-39 -12 -93 -66 -107 -107 -15 -46 -3 -89 38 -134 39
-44 89 -64 134 -54 44 10 107 70 119 114 20 76 -26 161 -99 181 -41 11 -46 11
-85 0z"/>
<path d="M5557 3066 c-67 -24 -97 -66 -97 -136 0 -52 21 -92 65 -126 73 -55
172 -26 216 64 37 75 6 152 -76 192 -48 23 -57 24 -108 6z"/>
<path d="M5937 3066 c-46 -17 -64 -32 -83 -67 -40 -78 3 -181 90 -214 44 -17
48 -17 91 0 57 21 96 70 102 128 7 55 -15 99 -65 132 -48 32 -88 38 -135 21z"/>
<path d="M6329 3071 c-66 -21 -109 -76 -109 -142 0 -51 43 -114 95 -139 54
-26 92 -22 142 16 95 72 81 197 -27 252 -47 23 -60 25 -101 13z"/>
<path d="M6714 3069 c-42 -12 -101 -79 -110 -124 -16 -87 84 -185 175 -170
107 18 161 145 97 230 -47 61 -101 82 -162 64z"/>
<path d="M183 2669 c-47 -30 -73 -78 -73 -133 0 -39 6 -52 36 -86 79 -87 208
-74 250 26 29 69 13 127 -51 183 -29 25 -44 31 -83 31 -30 0 -58 -8 -79 -21z"/>
<path d="M565 2669 c-73 -52 -96 -136 -53 -198 38 -57 73 -76 133 -76 153 0
198 190 67 277 -38 25 -110 23 -147 -3z"/>
<path d="M949 2667 c-106 -71 -103 -192 7 -254 47 -27 87 -29 134 -5 137 69
86 282 -68 282 -24 0 -52 -9 -73 -23z"/>
<path d="M1334 2671 c-105 -64 -107 -188 -5 -252 51 -33 83 -36 141 -13 74 30
106 119 68 194 -42 83 -133 114 -204 71z"/>
<path d="M1715 2671 c-64 -39 -89 -92 -75 -158 11 -49 74 -109 125 -119 108
-20 209 117 158 216 -38 74 -139 104 -208 61z"/>
<path d="M2087 2665 c-90 -62 -89 -178 3 -247 119 -88 284 68 210 199 -28 51
-66 73 -127 73 -35 0 -58 -7 -86 -25z"/>
<path d="M2473 2669 c-93 -59 -96 -177 -7 -245 122 -94 285 50 218 192 -34 71
-141 98 -211 53z"/>
<path d="M2859 2667 c-45 -30 -79 -83 -79 -121 1 -72 84 -155 156 -156 38 0
91 34 121 79 27 40 31 107 8 152 -36 68 -139 91 -206 46z"/>
<path d="M3244 2671 c-42 -25 -72 -66 -80 -107 -9 -50 27 -118 80 -149 52 -30
87 -31 135 -4 107 60 116 199 18 259 -41 26 -112 26 -153 1z"/>
<path d="M3624 2672 c-85 -54 -102 -151 -38 -221 79 -88 191 -74 244 29 33 64
20 129 -34 179 -37 34 -127 41 -172 13z"/>
<path d="M3997 2665 c-90 -62 -89 -178 3 -247 116 -85 275 58 215 193 -36 79
-141 105 -218 54z"/>
<path d="M4385 2669 c-94 -67 -98 -177 -9 -245 123 -94 285 50 217 193 -9 20
-30 44 -47 54 -44 27 -122 25 -161 -2z"/>
<path d="M4769 2667 c-45 -30 -79 -83 -79 -121 0 -46 40 -107 85 -133 69 -39
124 -26 184 42 39 45 45 110 14 168 -34 66 -138 88 -204 44z"/>
<path d="M5150 2668 c-52 -36 -75 -74 -74 -122 1 -54 26 -96 77 -130 49 -31
87 -33 136 -5 107 60 116 199 18 259 -45 28 -115 26 -157 -2z"/>
<path d="M5523 2670 c-120 -73 -57 -275 85 -275 58 0 104 30 132 85 35 68 22
120 -45 179 -30 26 -44 31 -88 31 -34 0 -63 -7 -84 -20z"/>
<path d="M5905 2670 c-120 -79 -60 -275 84 -275 112 0 188 128 130 221 -44 71
-148 98 -214 54z"/>
<path d="M6294 2674 c-46 -22 -78 -85 -71 -140 8 -77 80 -144 155 -144 64 0
142 83 142 152 0 111 -123 183 -226 132z"/>
<path d="M6673 2670 c-98 -59 -91 -198 13 -257 68 -39 123 -26 183 42 60 69
36 176 -49 220 -41 21 -109 19 -147 -5z"/>
<path d="M209 2302 c-58 -25 -99 -84 -99 -141 0 -154 213 -207 282 -70 37 70
13 146 -61 196 -33 23 -88 29 -122 15z"/>
<path d="M569 2287 c-103 -70 -103 -184 0 -254 92 -62 221 10 221 123 0 75
-77 154 -150 154 -22 0 -51 -9 -71 -23z"/>
<path d="M950 2288 c-54 -37 -75 -73 -75 -128 0 -111 121 -183 222 -132 48 25
73 71 73 134 0 111 -132 186 -220 126z"/>
<path d="M1334 2291 c-70 -43 -99 -121 -69 -185 63 -132 248 -123 285 14 33
123 -109 236 -216 171z"/>
<path d="M1740 2303 c-125 -47 -138 -206 -21 -271 75 -42 152 -18 198 63 27
48 29 88 5 135 -32 63 -116 97 -182 73z"/>
<path d="M2097 2287 c-104 -63 -103 -184 2 -254 86 -58 206 8 218 118 12 120
-116 199 -220 136z"/>
<path d="M2485 2291 c-54 -33 -78 -67 -82 -118 -4 -39 0 -55 19 -83 53 -78
134 -101 199 -57 75 51 98 130 60 205 -34 66 -132 93 -196 53z"/>
<path d="M2859 2287 c-54 -37 -82 -85 -76 -134 8 -76 78 -143 148 -143 42 0
99 33 127 74 29 42 30 116 2 161 -40 64 -138 85 -201 42z"/>
<path d="M3244 2291 c-74 -45 -98 -112 -66 -183 50 -114 191 -129 258 -28 36
55 40 96 12 150 -38 75 -134 104 -204 61z"/>
<path d="M3650 2303 c-87 -33 -128 -137 -84 -212 23 -39 91 -81 131 -81 105 0
184 127 136 220 -33 64 -118 97 -183 73z"/>
<path d="M4010 2289 c-106 -61 -106 -185 -1 -256 65 -44 146 -21 198 56 83
123 -67 276 -197 200z"/>
<path d="M4395 2291 c-61 -37 -80 -68 -80 -126 0 -60 20 -95 75 -132 64 -44
146 -20 197 56 44 66 21 166 -48 203 -43 23 -106 23 -144 -1z"/>
<path d="M4770 2288 c-45 -31 -69 -66 -76 -109 -12 -73 55 -155 134 -166 115
-15 205 126 145 229 -39 66 -140 89 -203 46z"/>
<path d="M5149 2286 c-71 -49 -92 -112 -60 -179 55 -113 190 -127 258 -27 34
49 38 90 15 144 -38 84 -137 113 -213 62z"/>
<path d="M5533 2294 c-102 -51 -97 -204 8 -263 67 -38 134 -22 185 44 38 50
43 110 12 155 -51 75 -132 100 -205 64z"/>
<path d="M5919 2287 c-18 -12 -44 -38 -57 -57 -61 -90 19 -220 136 -220 75 0
142 71 142 151 0 70 -79 149 -150 149 -22 0 -51 -9 -71 -23z"/>
<path d="M6300 2288 c-104 -71 -105 -185 -1 -255 66 -45 167 -20 202 49 52
101 -9 215 -120 226 -36 3 -53 -1 -81 -20z"/>
<path d="M195 1911 c-56 -33 -85 -78 -85 -127 0 -58 21 -97 67 -129 74 -50
175 -24 216 55 63 122 -84 271 -198 201z"/>
<path d="M590 1919 c-55 -22 -100 -85 -100 -139 0 -109 123 -183 224 -135 71
34 98 139 53 206 -45 68 -113 93 -177 68z"/>
<path d="M962 1913 c-80 -39 -114 -138 -70 -203 50 -74 138 -101 209 -65 70
37 93 147 43 212 -53 69 -116 89 -182 56z"/>
<path d="M1329 1902 c-105 -67 -99 -200 12 -257 67 -35 162 -8 195 57 39 76
11 164 -67 207 -50 28 -87 26 -140 -7z"/>
<path d="M1715 1906 c-100 -61 -104 -185 -8 -251 67 -45 146 -29 198 40 38 48
42 99 13 154 -41 79 -127 103 -203 57z"/>
<path d="M2115 1917 c-17 -8 -45 -31 -63 -51 -104 -118 58 -301 189 -213 47
31 79 83 79 126 0 45 -27 98 -61 124 -34 25 -105 31 -144 14z"/>
<path d="M2500 1919 c-87 -35 -125 -138 -77 -210 70 -105 191 -106 254 -2 72
120 -47 263 -177 212z"/>
<path d="M2875 1914 c-96 -50 -122 -149 -58 -224 71 -85 186 -78 242 14 26 41
28 117 4 156 -35 60 -126 87 -188 54z"/>
<path d="M3239 1901 c-54 -34 -84 -88 -75 -134 21 -113 140 -172 227 -114 98
64 97 207 -1 257 -55 28 -98 25 -151 -9z"/>
<path d="M3630 1909 c-78 -45 -104 -133 -60 -204 61 -98 182 -99 254 -2 30 41
29 121 -3 166 -43 60 -126 78 -191 40z"/>
<path d="M4025 1917 c-17 -8 -45 -31 -63 -51 -75 -86 -13 -222 107 -234 54 -5
101 22 138 77 40 59 22 150 -38 194 -34 25 -105 31 -144 14z"/>
<path d="M4410 1919 c-56 -23 -100 -85 -100 -142 0 -70 80 -147 154 -147 110
0 185 139 124 230 -40 60 -114 84 -178 59z"/>
<path d="M4785 1914 c-45 -23 -73 -53 -86 -91 -40 -123 107 -240 217 -172 100
62 101 209 2 260 -45 23 -93 24 -133 3z"/>
<path d="M5149 1902 c-82 -53 -98 -140 -38 -217 104 -131 316 -3 254 153 -22
53 -64 84 -124 89 -38 4 -54 -1 -92 -25z"/>
<path d="M5535 1911 c-52 -26 -75 -66 -75 -126 0 -153 180 -209 272 -85 88
119 -62 279 -197 211z"/>
<path d="M5940 1919 c-90 -36 -127 -144 -76 -220 63 -92 203 -92 254 0 29 51
28 109 -1 152 -45 68 -113 93 -177 68z"/>
<path d="M210 1539 c-88 -35 -127 -146 -77 -219 69 -104 221 -95 263 15 30 79
0 156 -76 195 -43 22 -72 24 -110 9z"/>
<path d="M575 1528 c-80 -47 -108 -134 -64 -204 61 -100 208 -102 260 -4 69
129 -72 279 -196 208z"/>
<path d="M962 1529 c-111 -56 -120 -187 -17 -258 41 -27 108 -30 154 -6 69 35
94 139 49 205 -51 74 -116 95 -186 59z"/>
<path d="M1355 1536 c-75 -33 -117 -113 -95 -180 14 -44 80 -102 123 -109 75
-11 146 37 167 112 14 54 1 96 -43 139 -52 51 -98 62 -152 38z"/>
<path d="M1735 1536 c-40 -18 -83 -66 -94 -104 -29 -98 83 -209 183 -181 44
12 103 78 112 125 11 60 -21 124 -76 152 -50 25 -82 27 -125 8z"/>
<path d="M2115 1536 c-88 -39 -121 -140 -71 -216 65 -99 184 -97 250 3 49 76
26 164 -54 205 -50 25 -82 27 -125 8z"/>
<path d="M2485 1527 c-79 -45 -104 -120 -66 -195 43 -82 136 -108 209 -59 99
65 94 208 -8 259 -47 24 -87 22 -135 -5z"/>
<path d="M2872 1529 c-99 -50 -119 -148 -45 -229 40 -45 88 -63 134 -50 75 22
119 77 119 150 0 113 -108 180 -208 129z"/>
<path d="M3264 1536 c-71 -31 -113 -107 -95 -173 19 -70 107 -129 172 -116 43
8 114 79 122 122 14 70 -23 140 -89 167 -41 17 -70 17 -110 0z"/>
<path d="M3645 1536 c-39 -17 -95 -80 -96 -109 -3 -67 14 -112 57 -146 66 -52
140 -45 197 19 47 51 56 98 31 159 -15 36 -28 51 -64 69 -50 25 -82 27 -125 8z"/>
<path d="M4025 1534 c-119 -62 -128 -197 -19 -265 72 -44 158 -18 203 61 43
77 16 165 -62 201 -51 23 -83 24 -122 3z"/>
<path d="M4395 1527 c-80 -45 -105 -123 -64 -196 59 -105 187 -112 254 -14 50
74 24 176 -55 215 -47 24 -87 22 -135 -5z"/>
<path d="M4782 1529 c-99 -49 -119 -148 -45 -229 59 -67 138 -71 204 -12 82
74 62 205 -38 248 -44 19 -71 18 -121 -7z"/>
<path d="M5180 1539 c-37 -15 -88 -68 -100 -105 -33 -99 78 -208 186 -184 76
17 128 105 105 180 -13 44 -54 88 -97 106 -38 16 -59 17 -94 3z"/>
<path d="M5556 1540 c-110 -33 -131 -200 -33 -265 69 -45 135 -36 190 25 73
80 53 181 -43 230 -42 21 -68 23 -114 10z"/>
</g>
</svg>
