<?xml version="1.0" encoding="UTF-8" standalone="no"?>
<!-- Created with Inkscape (http://www.inkscape.org/) -->

<svg
   width="70mm"
   height="70mm"
   viewBox="0 0 70 70"
   version="1.1"
   id="svg828"
   inkscape:version="1.1.1 (3bf5ae0d25, 2021-09-20)"
   sodipodi:docname="favicon__src.svg"
   xmlns:inkscape="http://www.inkscape.org/namespaces/inkscape"
   xmlns:sodipodi="http://sodipodi.sourceforge.net/DTD/sodipodi-0.dtd"
   xmlns="http://www.w3.org/2000/svg"
   xmlns:svg="http://www.w3.org/2000/svg">
  <sodipodi:namedview
     id="namedview830"
     pagecolor="#ffffff"
     bordercolor="#111111"
     borderopacity="1"
     inkscape:pageshadow="0"
     inkscape:pageopacity="0"
     inkscape:pagecheckerboard="1"
     inkscape:document-units="mm"
     showgrid="false"
     showguides="true"
     inkscape:guide-bbox="true"
     inkscape:zoom="0.99775533"
     inkscape:cx="100.7261"
     inkscape:cy="200.95107"
     inkscape:window-width="1360"
     inkscape:window-height="745"
     inkscape:window-x="-8"
     inkscape:window-y="-8"
     inkscape:window-maximized="1"
     inkscape:current-layer="layer1">
    <sodipodi:guide
       position="35.000001,35.000001"
       orientation="0,1"
       id="guide25211"
       inkscape:label=""
       inkscape:locked="false"
       inkscape:color="rgb(0,0,255)" />
    <sodipodi:guide
       position="35.000001,35.000001"
       orientation="1,0"
       id="guide25414" />
  </sodipodi:namedview>
  <defs
     id="defs825">
    <rect
       x="36.08099"
       y="52.116985"
       width="184.41395"
       height="166.37345"
       id="rect4963" />
    <rect
       x="36.08099"
       y="52.116985"
       width="228.48593"
       height="212.44995"
       id="rect6841" />
  </defs>
  <g
     inkscape:label="Слой 1"
     inkscape:groupmode="layer"
     id="layer1"
     transform="translate(5.3035712,26.51786)">
    <text
       xml:space="preserve"
       transform="matrix(0.26458333,0,0,0.26458333,-5.3035712,-26.51786)"
       id="text4961"
       style="fill:black;fill-opacity:1;line-height:1.25;stroke:none;font-family:sans-serif;font-style:normal;font-weight:normal;font-size:40px;white-space:pre;shape-inside:url(#rect4963)" />
    <path
       id="rect850"
       style="fill:#8f773d;stroke-width:0.359832"
       d="m -2.6927571,-14.032998 c -0.3980145,0 -0.776105,0.179435 -1.1343151,0.537642 -0.2786121,0.318409 -0.4181656,0.636697 -0.4181656,0.955103 0,0.437813 0.17943,0.81591 0.5376402,1.134319 0.3184029,0.278607 0.6566304,0.418165 1.0148405,0.418165 0.398005,0 0.7561784,-0.139558 1.0745812,-0.418165 0.2786081,-0.318409 0.4181657,-0.696506 0.4181657,-1.134319 0,-0.358209 -0.1794314,-0.71637 -0.5376415,-1.074579 -0.3184016,-0.278608 -0.6367025,-0.418166 -0.9551054,-0.418166 z m 3.8211176,0 c -0.39801176,0 -0.77680817,0.179435 -1.13501826,0.537642 -0.2786107,0.318409 -0.4174638,0.636697 -0.4174638,0.955103 0,0.437813 0.1787297,0.81591 0.53693973,1.134319 0.31840154,0.278607 0.65733496,0.418165 1.01554233,0.418165 0.3980103,0 0.7561742,-0.139558 1.07458,-0.418165 0.2786079,-0.318409 0.4174637,-0.696506 0.4174637,-1.134319 0,-0.358209 -0.1787296,-0.71637 -0.5369397,-1.074579 -0.3184043,-0.278608 -0.6366956,-0.418166 -0.955104,-0.418166 z m 3.8204147,0 c -0.3980104,0 -0.7761091,0.179435 -1.1343152,0.537642 -0.278608,0.318409 -0.4174638,0.636697 -0.4174638,0.955103 0,0.437813 0.1787284,0.81591 0.5369384,1.134319 0.3184056,0.278607 0.6566305,0.418165 1.0148406,0.418165 0.3980077,0 0.7561716,-0.139558 1.0745799,-0.418165 0.2786053,-0.318409 0.4181656,-0.696506 0.4181656,-1.134319 0,-0.358209 -0.1794342,-0.71637 -0.5376401,-1.074579 -0.3184097,-0.278608 -0.6366997,-0.418166 -0.9551054,-0.418166 z m 3.8211177,0 c -0.3980077,0 -0.7761091,0.179435 -1.1343164,0.537642 -0.278608,0.318409 -0.4181657,0.636697 -0.4181657,0.955103 0,0.437813 0.1794342,0.81591 0.5376415,1.134319 0.3184084,0.278607 0.6566305,0.418165 1.0148406,0.418165 0.3980104,0 0.7561699,-0.139558 1.0745799,-0.418165 0.2786072,-0.318409 0.4181652,-0.696506 0.4181652,-1.134319 0,-0.358209 -0.179434,-0.71637 -0.5376412,-1.074579 -0.3184082,-0.278608 -0.6366956,-0.418166 -0.9551039,-0.418166 z m 3.8211171,0 c -0.39801,0 -0.776108,0.179435 -1.134315,0.537642 -0.278607,0.318409 -0.418166,0.636697 -0.418166,0.955103 0,0.437813 0.17873,0.81591 0.53694,1.134319 0.318405,0.278607 0.657336,0.418165 1.015541,0.418165 0.398013,0 0.756175,-0.139558 1.074581,-0.418165 0.278608,-0.318409 0.417464,-0.696506 0.417464,-1.134319 0,-0.358209 -0.178734,-0.71637 -0.536939,-1.074579 -0.318409,-0.278608 -0.636695,-0.418166 -0.955106,-0.418166 z m 3.820417,0 c -0.398012,0 -0.77611,0.179435 -1.134317,0.537642 -0.278607,0.318409 -0.417463,0.636697 -0.417463,0.955103 0,0.437813 0.178729,0.81591 0.536939,1.134319 0.318406,0.278607 0.656631,0.418165 1.014841,0.418165 0.398008,0 0.756171,-0.139558 1.074581,-0.418165 0.278603,-0.318409 0.418165,-0.696506 0.418165,-1.134319 0,-0.358209 -0.179435,-0.71637 -0.537642,-1.074579 -0.318408,-0.278608 -0.636699,-0.418166 -0.955104,-0.418166 z m 3.821116,0 c -0.398008,0 -0.776113,0.179435 -1.134315,0.537642 -0.278608,0.318409 -0.418165,0.636697 -0.418165,0.955103 0,0.437813 0.179425,0.81591 0.53764,1.134319 0.318406,0.278607 0.656635,0.418165 1.01484,0.418165 0.398012,0 0.756172,-0.139558 1.07458,-0.418165 0.278609,-0.318409 0.418166,-0.696506 0.418166,-1.134319 0,-0.358209 -0.17943,-0.71637 -0.53764,-1.074579 -0.31841,-0.278608 -0.636696,-0.418166 -0.955106,-0.418166 z m 3.821118,0 c -0.398008,0 -0.776106,0.179435 -1.134316,0.537642 -0.278608,0.318409 -0.418165,0.636697 -0.418165,0.955103 0,0.437813 0.178724,0.81591 0.536934,1.134319 0.318407,0.278607 0.65734,0.418165 1.015547,0.418165 0.39801,0 0.756174,-0.139558 1.074579,-0.418165 0.27861,-0.318409 0.41746,-0.696506 0.41746,-1.134319 0,-0.358209 -0.178725,-0.71637 -0.536935,-1.074579 -0.318408,-0.278608 -0.636696,-0.418166 -0.955104,-0.418166 z m 3.820415,0 c -0.398009,0 -0.776114,0.179435 -1.134319,0.537642 -0.278609,0.318409 -0.417462,0.636697 -0.417462,0.955103 0,0.437813 0.17873,0.81591 0.53694,1.134319 0.318406,0.278607 0.656631,0.418165 1.014841,0.418165 0.398011,0 0.756168,-0.139558 1.074579,-0.418165 0.278605,-0.318409 0.418162,-0.696506 0.418162,-1.134319 0,-0.358209 -0.179433,-0.71637 -0.53764,-1.074579 -0.31841,-0.278608 -0.636692,-0.418166 -0.955101,-0.418166 z m 3.821115,0 c -0.398006,0 -0.776108,0.179435 -1.134318,0.537642 -0.278608,0.318409 -0.418161,0.636697 -0.418161,0.955103 0,0.437813 0.179429,0.81591 0.53764,1.134319 0.318406,0.278607 0.656634,0.418165 1.014839,0.418165 0.398013,0 0.756168,-0.139558 1.074582,-0.418165 0.278609,-0.318409 0.418166,-0.696506 0.418166,-1.134319 0,-0.358209 -0.179436,-0.71637 -0.537646,-1.074579 -0.318405,-0.278608 -0.636691,-0.418166 -0.955102,-0.418166 z m 3.82112,0 c -0.398009,0 -0.776115,0.179435 -1.134321,0.537642 -0.278608,0.318409 -0.418162,0.636697 -0.418162,0.955103 0,0.437813 0.179431,0.81591 0.537642,1.134319 0.318407,0.278607 0.656633,0.418165 1.014841,0.418165 0.398009,0 0.75617,-0.139558 1.074578,-0.418165 0.278608,-0.318409 0.417459,-0.696506 0.417459,-1.134319 0,-0.358209 -0.178731,-0.71637 -0.536934,-1.074579 -0.318413,-0.278608 -0.636696,-0.418166 -0.955103,-0.418166 z m 3.820412,0 c -0.398014,0 -0.776112,0.179435 -1.134319,0.537642 -0.278608,0.318409 -0.41746,0.636697 -0.41746,0.955103 0,0.437813 0.178725,0.81591 0.536935,1.134319 0.318406,0.278607 0.656633,0.418165 1.014844,0.418165 0.398008,0 0.756167,-0.139558 1.074577,-0.418165 0.278604,-0.318409 0.418166,-0.696506 0.418166,-1.134319 0,-0.358209 -0.179431,-0.71637 -0.537642,-1.074579 -0.318406,-0.278608 -0.636695,-0.418166 -0.955101,-0.418166 z m 3.821118,0 c -0.398012,0 -0.776113,0.179435 -1.134319,0.537642 -0.278609,0.318409 -0.418166,0.636697 -0.418166,0.955103 0,0.437813 0.17943,0.81591 0.53764,1.134319 0.318405,0.278607 0.656634,0.418165 1.014845,0.418165 0.39801,0 0.75617,-0.139558 1.074576,-0.418165 0.278607,-0.318409 0.418166,-0.696506 0.418166,-1.134319 0,-0.358209 -0.179435,-0.71637 -0.537641,-1.074579 -0.318411,-0.278608 -0.636693,-0.418166 -0.955101,-0.418166 z m 3.821116,0 c -0.398008,0 -0.776113,0.179435 -1.134319,0.537642 -0.278608,0.318409 -0.418166,0.636697 -0.418166,0.955103 0,0.437813 0.179434,0.81591 0.537641,1.134319 0.318405,0.278607 0.656634,0.418165 1.014844,0.418165 0.398012,0 0.756168,-0.139558 1.07458,-0.418165 0.278608,-0.318409 0.417461,-0.696506 0.417461,-1.134319 0,-0.358209 -0.17873,-0.71637 -0.53694,-1.074579 -0.318405,-0.278608 -0.636691,-0.418166 -0.955101,-0.418166 z m 3.820412,0 c -0.358207,0 -0.696435,0.139558 -1.014841,0.418166 -0.35821,0.358209 -0.53694,0.71637 -0.53694,1.074579 0,0.437813 0.13886,0.81591 0.417465,1.134319 0.318409,0.278607 0.696508,0.418165 1.134316,0.418165 0.31841,0 0.637397,-0.139558 0.95581,-0.418165 0.358203,-0.318409 0.536935,-0.696506 0.536935,-1.134319 0,-0.318406 -0.139557,-0.636694 -0.418164,-0.955103 -0.358211,-0.358207 -0.716371,-0.537642 -1.074581,-0.537642 z m -53.4921261,3.82112 c -0.3980145,0 -0.776105,0.179431 -1.1343151,0.5376407 -0.2786121,0.3184081 -0.4181656,0.6366948 -0.4181656,0.9551034 0,0.4378107 0.17943,0.8159087 0.5376402,1.1343171 0.3184029,0.2786053 0.6566304,0.4174628 1.0148405,0.4174628 0.398005,0 0.7561784,-0.1388575 1.0745812,-0.4174628 0.2786081,-0.3184084 0.4181657,-0.6965064 0.4181657,-1.1343171 0,-0.3582084 -0.1794314,-0.7163709 -0.5376415,-1.0745794 -0.3184016,-0.2786067 -0.6367025,-0.4181647 -0.9551054,-0.4181647 z m 3.8211176,0 c -0.39801176,0 -0.77680817,0.179431 -1.13501826,0.5376407 -0.2786107,0.3184081 -0.4174638,0.6366948 -0.4174638,0.9551034 0,0.4378107 0.1787297,0.8159087 0.53693973,1.1343171 0.31840154,0.2786053 0.65733496,0.4174628 1.01554233,0.4174628 0.3980103,0 0.7561742,-0.1388575 1.07458,-0.4174628 0.2786079,-0.3184084 0.4174637,-0.6965064 0.4174637,-1.1343171 0,-0.3582084 -0.1787296,-0.7163709 -0.5369397,-1.0745794 C 1.7650602,-10.07232 1.4467689,-10.211878 1.1283605,-10.211878 Z m 3.8204147,0 c -0.3980104,0 -0.7761091,0.179431 -1.1343152,0.5376407 -0.278608,0.3184081 -0.4174638,0.6366948 -0.4174638,0.9551034 0,0.4378107 0.1787284,0.8159087 0.5369384,1.1343171 0.3184056,0.2786053 0.6566305,0.4174628 1.0148406,0.4174628 0.3980077,0 0.7561716,-0.1388575 1.0745799,-0.4174628 0.2786053,-0.3184084 0.4181656,-0.6965064 0.4181656,-1.1343171 0,-0.3582084 -0.1794342,-0.7163709 -0.5376401,-1.0745794 C 5.5854709,-10.07232 5.2671809,-10.211878 4.9487752,-10.211878 Z m 3.8211177,0 c -0.3980077,0 -0.7761091,0.179431 -1.1343164,0.5376407 -0.278608,0.3184081 -0.4181657,0.6366948 -0.4181657,0.9551034 0,0.4378107 0.1794342,0.8159087 0.5376415,1.1343171 0.3184084,0.2786053 0.6566305,0.4174628 1.0148406,0.4174628 0.3980104,0 0.7561699,-0.1388575 1.0745799,-0.4174628 0.2786072,-0.3184084 0.4181652,-0.6965064 0.4181652,-1.1343171 0,-0.3582084 -0.179434,-0.7163709 -0.5376412,-1.0745794 C 9.4065886,-10.07232 9.0883012,-10.211878 8.7698929,-10.211878 Z m 3.8211171,0 c -0.39801,0 -0.776108,0.179431 -1.134315,0.5376407 -0.278607,0.3184081 -0.418166,0.6366948 -0.418166,0.9551034 0,0.4378107 0.17873,0.8159087 0.53694,1.1343171 0.318405,0.2786053 0.657336,0.4174628 1.015541,0.4174628 0.398013,0 0.756175,-0.1388575 1.074581,-0.4174628 0.278608,-0.3184084 0.417464,-0.6965064 0.417464,-1.1343171 0,-0.3582084 -0.178734,-0.7163709 -0.536939,-1.0745794 -0.318409,-0.2786067 -0.636695,-0.4181647 -0.955106,-0.4181647 z m 3.820417,0 c -0.398012,0 -0.77611,0.179431 -1.134317,0.5376407 -0.278607,0.3184081 -0.417463,0.6366948 -0.417463,0.9551034 0,0.4378107 0.178729,0.8159087 0.536939,1.1343171 0.318406,0.2786053 0.656631,0.4174628 1.014841,0.4174628 0.398008,0 0.756171,-0.1388575 1.074581,-0.4174628 0.278603,-0.3184084 0.418165,-0.6965064 0.418165,-1.1343171 0,-0.3582084 -0.179435,-0.7163709 -0.537642,-1.0745794 -0.318408,-0.2786067 -0.636699,-0.4181647 -0.955104,-0.4181647 z m 3.821116,0 c -0.398008,0 -0.776113,0.179431 -1.134315,0.5376407 -0.278608,0.3184081 -0.418165,0.6366948 -0.418165,0.9551034 0,0.4378107 0.179425,0.8159087 0.53764,1.1343171 0.318406,0.2786053 0.656635,0.4174628 1.01484,0.4174628 0.398012,0 0.756172,-0.1388575 1.07458,-0.4174628 0.278609,-0.3184084 0.418166,-0.6965064 0.418166,-1.1343171 0,-0.3582084 -0.17943,-0.7163709 -0.53764,-1.0745794 -0.31841,-0.2786067 -0.636696,-0.4181647 -0.955106,-0.4181647 z m 3.821118,0 c -0.398008,0 -0.776106,0.179431 -1.134316,0.5376407 -0.278608,0.3184081 -0.418165,0.6366948 -0.418165,0.9551034 0,0.4378107 0.178724,0.8159087 0.536934,1.1343171 0.318407,0.2786053 0.65734,0.4174628 1.015547,0.4174628 0.39801,0 0.756174,-0.1388575 1.074579,-0.4174628 0.27861,-0.3184084 0.41746,-0.6965064 0.41746,-1.1343171 0,-0.3582084 -0.178725,-0.7163709 -0.536935,-1.0745794 -0.318408,-0.2786067 -0.636696,-0.4181647 -0.955104,-0.4181647 z m 3.820415,0 c -0.398009,0 -0.776114,0.179431 -1.134319,0.5376407 -0.278609,0.3184081 -0.417462,0.6366948 -0.417462,0.9551034 0,0.4378107 0.17873,0.8159087 0.53694,1.1343171 0.318406,0.2786053 0.656631,0.4174628 1.014841,0.4174628 0.398011,0 0.756168,-0.1388575 1.074579,-0.4174628 0.278605,-0.3184084 0.418162,-0.6965064 0.418162,-1.1343171 4e-6,-0.3582084 -0.179433,-0.7163709 -0.53764,-1.0745794 -0.31841,-0.2786067 -0.636692,-0.4181647 -0.955101,-0.4181647 z m 3.821115,0 c -0.398006,0 -0.776108,0.179431 -1.134318,0.5376407 -0.278608,0.3184081 -0.418161,0.6366948 -0.418161,0.9551034 -5e-6,0.4378107 0.179429,0.8159087 0.53764,1.1343171 0.318406,0.2786053 0.656634,0.4174628 1.014839,0.4174628 0.398013,0 0.756168,-0.1388575 1.074582,-0.4174628 0.278609,-0.3184084 0.418166,-0.6965064 0.418166,-1.1343171 0,-0.3582084 -0.179436,-0.7163709 -0.537646,-1.0745794 -0.318405,-0.2786067 -0.636691,-0.4181647 -0.955102,-0.4181647 z m 3.82112,0 c -0.398009,0 -0.776115,0.179431 -1.134321,0.5376407 -0.278608,0.3184081 -0.418162,0.6366948 -0.418162,0.9551034 0,0.4378107 0.179431,0.8159087 0.537642,1.1343171 0.318407,0.2786053 0.656633,0.4174628 1.014841,0.4174628 0.398009,0 0.75617,-0.1388575 1.074578,-0.4174628 0.278608,-0.3184084 0.417459,-0.6965064 0.417459,-1.1343171 0,-0.3582084 -0.178731,-0.7163709 -0.536934,-1.0745794 -0.318413,-0.2786067 -0.636696,-0.4181647 -0.955103,-0.4181647 z m 3.820412,0 c -0.398014,0 -0.776112,0.179431 -1.134319,0.5376407 -0.278608,0.3184081 -0.41746,0.6366948 -0.41746,0.9551034 0,0.4378107 0.178725,0.8159087 0.536935,1.1343171 0.318406,0.2786053 0.656633,0.4174628 1.014844,0.4174628 0.398008,0 0.756167,-0.1388575 1.074577,-0.4174628 0.278604,-0.3184084 0.418166,-0.6965064 0.418166,-1.1343171 0,-0.3582084 -0.179431,-0.7163709 -0.537642,-1.0745794 -0.318406,-0.2786067 -0.636695,-0.4181647 -0.955101,-0.4181647 z m 3.821118,0 c -0.398012,0 -0.776113,0.179431 -1.134319,0.5376407 -0.278609,0.3184081 -0.418166,0.6366948 -0.418166,0.9551034 0,0.4378107 0.17943,0.8159087 0.53764,1.1343171 0.318405,0.2786053 0.656634,0.4174628 1.014845,0.4174628 0.39801,0 0.75617,-0.1388575 1.074576,-0.4174628 0.278607,-0.3184084 0.418166,-0.6965064 0.418166,-1.1343171 0,-0.3582084 -0.179435,-0.7163709 -0.537641,-1.0745794 -0.318411,-0.2786067 -0.636693,-0.4181647 -0.955101,-0.4181647 z m 3.821116,0 c -0.398008,0 -0.776113,0.179431 -1.134319,0.5376407 -0.278608,0.3184081 -0.418166,0.6366948 -0.418166,0.9551034 0,0.4378107 0.179434,0.8159087 0.537641,1.1343171 0.318405,0.2786053 0.656634,0.4174628 1.014844,0.4174628 0.398012,0 0.756168,-0.1388575 1.07458,-0.4174628 0.278608,-0.3184084 0.417461,-0.6965064 0.417461,-1.1343171 0,-0.3582084 -0.17873,-0.7163709 -0.53694,-1.0745794 -0.318405,-0.2786067 -0.636691,-0.4181647 -0.955101,-0.4181647 z m 3.820412,0 c -0.358207,0 -0.696435,0.139558 -1.014841,0.4181647 -0.35821,0.3582085 -0.53694,0.716371 -0.53694,1.0745794 0,0.4378107 0.13886,0.8159087 0.417465,1.1343171 0.318409,0.2786053 0.696508,0.4174628 1.134316,0.4174628 0.31841,0 0.637397,-0.1388575 0.95581,-0.4174628 0.358203,-0.3184084 0.536935,-0.6965064 0.536935,-1.1343171 0,-0.3184086 -0.139557,-0.6366953 -0.418164,-0.9551034 -0.358211,-0.3582097 -0.716371,-0.5376407 -1.074581,-0.5376407 z m 3.821121,0 c -0.358215,0 -0.69644,0.139558 -1.014845,0.4181647 -0.35821,0.3582085 -0.53764,0.716371 -0.53764,1.0745794 0,0.4378107 0.139557,0.8159087 0.418165,1.1343171 0.318402,0.2786053 0.696504,0.4174628 1.13432,0.4174628 0.318401,0 0.636691,-0.1388575 0.955101,-0.4174628 0.358206,-0.3184084 0.537642,-0.6965064 0.537642,-1.1343171 0,-0.3184086 -0.139563,-0.6366953 -0.418166,-0.9551034 -0.358211,-0.3582097 -0.716374,-0.5376407 -1.074577,-0.5376407 z m -57.3132471,3.8211166 c -0.3980145,0 -0.776105,0.1787295 -1.1343151,0.5369381 -0.2786121,0.3184084 -0.4181656,0.6366954 -0.4181656,0.9551037 0,0.4378097 0.17943,0.8159107 0.5376402,1.1343174 0.3184029,0.2786065 0.6566304,0.4181653 1.0148405,0.4181653 0.398005,0 0.7561784,-0.1395588 1.0745812,-0.4181653 0.2786081,-0.3184067 0.4181657,-0.6965077 0.4181657,-1.1343174 0,-0.3582087 -0.1794314,-0.7163706 -0.5376415,-1.0745793 -0.3184016,-0.2786066 -0.6367025,-0.4174625 -0.9551054,-0.4174625 z m 3.8211176,0 c -0.39801176,0 -0.77680817,0.1787295 -1.13501826,0.5369381 -0.2786107,0.3184084 -0.4174638,0.6366954 -0.4174638,0.9551037 0,0.4378097 0.1787297,0.8159107 0.53693973,1.1343174 0.31840154,0.2786065 0.65733496,0.4181653 1.01554233,0.4181653 0.3980103,0 0.7561742,-0.1395588 1.07458,-0.4181653 0.2786079,-0.3184067 0.4174637,-0.6965077 0.4174637,-1.1343174 0,-0.3582087 -0.1787296,-0.7163706 -0.5369397,-1.0745793 -0.3184043,-0.2786066 -0.6366956,-0.4174625 -0.955104,-0.4174625 z m 3.8204147,0 c -0.3980104,0 -0.7761091,0.1787295 -1.1343152,0.5369381 -0.278608,0.3184084 -0.4174638,0.6366954 -0.4174638,0.9551037 0,0.4378097 0.1787284,0.8159107 0.5369384,1.1343174 0.3184056,0.2786065 0.6566305,0.4181653 1.0148406,0.4181653 0.3980077,0 0.7561716,-0.1395588 1.0745799,-0.4181653 0.2786053,-0.3184067 0.4181656,-0.6965077 0.4181656,-1.1343174 0,-0.3582087 -0.1794342,-0.7163706 -0.5376401,-1.0745793 C 5.5854709,-6.2519055 5.2671809,-6.3907614 4.9487752,-6.3907614 Z m 3.8211177,0 c -0.3980077,0 -0.7761091,0.1787295 -1.1343164,0.5369381 -0.278608,0.3184084 -0.4181657,0.6366954 -0.4181657,0.9551037 0,0.4378097 0.1794342,0.8159107 0.5376415,1.1343174 0.3184084,0.2786065 0.6566305,0.4181653 1.0148406,0.4181653 0.3980104,0 0.7561699,-0.1395588 1.0745799,-0.4181653 0.2786072,-0.3184067 0.4181652,-0.6965077 0.4181652,-1.1343174 0,-0.3582087 -0.179434,-0.7163706 -0.5376412,-1.0745793 C 9.4065886,-6.2519055 9.0883012,-6.3907614 8.7698929,-6.3907614 Z m 3.8211171,0 c -0.39801,0 -0.776108,0.1787295 -1.134315,0.5369381 -0.278607,0.3184084 -0.418166,0.6366954 -0.418166,0.9551037 0,0.4378097 0.17873,0.8159107 0.53694,1.1343174 0.318405,0.2786065 0.657336,0.4181653 1.015541,0.4181653 0.398013,0 0.756175,-0.1395588 1.074581,-0.4181653 0.278608,-0.3184067 0.417464,-0.6965077 0.417464,-1.1343174 0,-0.3582087 -0.178734,-0.7163706 -0.536939,-1.0745793 -0.318409,-0.2786066 -0.636695,-0.4174625 -0.955106,-0.4174625 z m 3.820417,0 c -0.398012,0 -0.77611,0.1787295 -1.134317,0.5369381 -0.278607,0.3184084 -0.417463,0.6366954 -0.417463,0.9551037 0,0.4378097 0.178729,0.8159107 0.536939,1.1343174 0.318406,0.2786065 0.656631,0.4181653 1.014841,0.4181653 0.398008,0 0.756171,-0.1395588 1.074581,-0.4181653 0.278603,-0.3184067 0.418165,-0.6965077 0.418165,-1.1343174 0,-0.3582087 -0.179435,-0.7163706 -0.537642,-1.0745793 -0.318408,-0.2786066 -0.636699,-0.4174625 -0.955104,-0.4174625 z m 3.821116,0 c -0.398008,0 -0.776113,0.1787295 -1.134315,0.5369381 -0.278608,0.3184084 -0.418165,0.6366954 -0.418165,0.9551037 0,0.4378097 0.179425,0.8159107 0.53764,1.1343174 0.318406,0.2786065 0.656635,0.4181653 1.01484,0.4181653 0.398012,0 0.756172,-0.1395588 1.07458,-0.4181653 0.278609,-0.3184067 0.418166,-0.6965077 0.418166,-1.1343174 0,-0.3582087 -0.17943,-0.7163706 -0.53764,-1.0745793 -0.31841,-0.2786066 -0.636696,-0.4174625 -0.955106,-0.4174625 z m 3.821118,0 c -0.398008,0 -0.776106,0.1787295 -1.134316,0.5369381 -0.278608,0.3184084 -0.418165,0.6366954 -0.418165,0.9551037 0,0.4378097 0.178724,0.8159107 0.536934,1.1343174 0.318407,0.2786065 0.65734,0.4181653 1.015547,0.4181653 0.39801,0 0.756174,-0.1395588 1.074579,-0.4181653 0.27861,-0.3184067 0.41746,-0.6965077 0.41746,-1.1343174 0,-0.3582087 -0.178725,-0.7163706 -0.536935,-1.0745793 -0.318408,-0.2786066 -0.636696,-0.4174625 -0.955104,-0.4174625 z m 3.820415,0 c -0.398009,0 -0.776114,0.1787295 -1.134319,0.5369381 -0.278609,0.3184084 -0.417462,0.6366954 -0.417462,0.9551037 0,0.4378097 0.17873,0.8159107 0.53694,1.1343174 0.318406,0.2786065 0.656631,0.4181653 1.014841,0.4181653 0.398011,0 0.756168,-0.1395588 1.074579,-0.4181653 0.278605,-0.3184067 0.418162,-0.6965077 0.418162,-1.1343174 0,-0.3582087 -0.179433,-0.7163706 -0.53764,-1.0745793 -0.31841,-0.2786066 -0.636692,-0.4174625 -0.955101,-0.4174625 z m 3.821115,0 c -0.398006,0 -0.776108,0.1787295 -1.134318,0.5369381 -0.278608,0.3184084 -0.418161,0.6366954 -0.418161,0.9551037 0,0.4378097 0.179429,0.8159107 0.53764,1.1343174 0.318406,0.2786065 0.656634,0.4181653 1.014839,0.4181653 0.398013,0 0.756168,-0.1395588 1.074582,-0.4181653 0.278609,-0.3184067 0.418166,-0.6965077 0.418166,-1.1343174 0,-0.3582087 -0.179436,-0.7163706 -0.537646,-1.0745793 -0.318405,-0.2786066 -0.636691,-0.4174625 -0.955102,-0.4174625 z m 3.82112,0 c -0.398009,0 -0.776115,0.1787295 -1.134321,0.5369381 -0.278608,0.3184084 -0.418162,0.6366954 -0.418162,0.9551037 0,0.4378097 0.179431,0.8159107 0.537642,1.1343174 0.318407,0.2786065 0.656633,0.4181653 1.014841,0.4181653 0.398009,0 0.75617,-0.1395588 1.074578,-0.4181653 0.278608,-0.3184067 0.417459,-0.6965077 0.417459,-1.1343174 0,-0.3582087 -0.178731,-0.7163706 -0.536934,-1.0745793 -0.318413,-0.2786066 -0.636696,-0.4174625 -0.955103,-0.4174625 z m 3.820412,0 c -0.398014,0 -0.776112,0.1787295 -1.134319,0.5369381 -0.278608,0.3184084 -0.41746,0.6366954 -0.41746,0.9551037 0,0.4378097 0.178725,0.8159107 0.536935,1.1343174 0.318406,0.2786065 0.656633,0.4181653 1.014844,0.4181653 0.398008,0 0.756167,-0.1395588 1.074577,-0.4181653 0.278604,-0.3184067 0.418166,-0.6965077 0.418166,-1.1343174 0,-0.3582087 -0.179431,-0.7163706 -0.537642,-1.0745793 -0.318406,-0.2786066 -0.636695,-0.4174625 -0.955101,-0.4174625 z m 3.821118,0 c -0.398012,0 -0.776113,0.1787295 -1.134319,0.5369381 -0.278609,0.3184084 -0.418166,0.6366954 -0.418166,0.9551037 0,0.4378097 0.17943,0.8159107 0.53764,1.1343174 0.318405,0.2786065 0.656634,0.4181653 1.014845,0.4181653 0.39801,0 0.75617,-0.1395588 1.074576,-0.4181653 0.278607,-0.3184067 0.418166,-0.6965077 0.418166,-1.1343174 0,-0.3582087 -0.179435,-0.7163706 -0.537641,-1.0745793 -0.318411,-0.2786066 -0.636693,-0.4174625 -0.955101,-0.4174625 z m 3.821116,0 c -0.398008,0 -0.776113,0.1787295 -1.134319,0.5369381 -0.278608,0.3184084 -0.418166,0.6366954 -0.418166,0.9551037 0,0.4378097 0.179434,0.8159107 0.537641,1.1343174 0.318405,0.2786065 0.656634,0.4181653 1.014844,0.4181653 0.398012,0 0.756168,-0.1395588 1.07458,-0.4181653 0.278608,-0.3184067 0.417461,-0.6965077 0.417461,-1.1343174 0,-0.3582087 -0.17873,-0.7163706 -0.53694,-1.0745793 -0.318405,-0.2786066 -0.636691,-0.4174625 -0.955101,-0.4174625 z m 3.820412,0 c -0.358207,0 -0.696435,0.1388559 -1.014841,0.4174625 -0.35821,0.3582087 -0.53694,0.7163706 -0.53694,1.0745793 5e-6,0.4378097 0.13886,0.8159107 0.417465,1.1343174 0.318409,0.2786065 0.696508,0.4181653 1.134316,0.4181653 0.31841,0 0.637397,-0.1395588 0.95581,-0.4181653 0.358203,-0.3184067 0.536935,-0.6965077 0.536935,-1.1343174 0,-0.3184083 -0.139557,-0.6366953 -0.418164,-0.9551037 -0.358211,-0.3582086 -0.716371,-0.5369381 -1.074581,-0.5369381 z m 3.821121,0 c -0.358215,0 -0.69644,0.1388559 -1.014845,0.4174625 -0.35821,0.3582087 -0.53764,0.7163706 -0.53764,1.0745793 0,0.4378097 0.139557,0.8159107 0.418165,1.1343174 0.318402,0.2786065 0.696504,0.4181653 1.13432,0.4181653 0.318401,0 0.636691,-0.1395588 0.955101,-0.4181653 0.358206,-0.3184067 0.537642,-0.6965077 0.537642,-1.1343174 0,-0.3184083 -0.139563,-0.6366953 -0.418166,-0.9551037 -0.358211,-0.3582086 -0.716374,-0.5369381 -1.074577,-0.5369381 z m 3.821117,0 c -0.358211,0 -0.696438,0.1388559 -1.014845,0.4174625 -0.35821,0.3582087 -0.537642,0.7163706 -0.537642,1.0745793 0,0.4378097 0.139559,0.8159107 0.418166,1.1343174 0.318406,0.2786065 0.696507,0.4181653 1.134321,0.4181653 0.318405,0 0.636696,-0.1395588 0.9551,-0.4181653 0.35821,-0.3184067 0.53694,-0.6965077 0.53694,-1.1343174 0,-0.3184083 -0.138859,-0.6366953 -0.417464,-0.9551037 -0.35821,-0.3582086 -0.716366,-0.5369381 -1.074576,-0.5369381 z M -2.6927571,-2.570347 c -0.3980145,0 -0.776105,0.1794339 -1.1343151,0.5376412 -0.2786121,0.3184081 -0.4181656,0.6366953 -0.4181656,0.9551035 0,0.43780967 0.17943,0.81591173 0.5376402,1.13431733 0.3184029,0.27860806 0.6566304,0.41816525 1.0148405,0.41816525 0.398005,0 0.7561784,-0.13955719 1.0745812,-0.41816525 0.2786081,-0.3184056 0.4181657,-0.69650766 0.4181657,-1.13431733 0,-0.3582101 -0.1794314,-0.7163691 -0.5376415,-1.0745794 -0.3184016,-0.2786037 -0.6367025,-0.4181653 -0.9551054,-0.4181653 z m 3.8211176,0 c -0.39801176,0 -0.77680817,0.1794339 -1.13501826,0.5376412 -0.2786107,0.3184081 -0.4174638,0.6366953 -0.4174638,0.9551035 0,0.43780967 0.1787297,0.81591173 0.53693973,1.13431733 0.31840154,0.27860806 0.65733496,0.41816525 1.01554233,0.41816525 0.3980103,0 0.7561742,-0.13955719 1.07458,-0.41816525 0.2786079,-0.3184056 0.4174637,-0.69650766 0.4174637,-1.13431733 0,-0.3582101 -0.1787296,-0.7163691 -0.5369397,-1.0745794 C 1.7650602,-2.4307854 1.4467689,-2.570347 1.1283605,-2.570347 Z m 3.8204147,0 c -0.3980104,0 -0.7761091,0.1794339 -1.1343152,0.5376412 -0.278608,0.3184081 -0.4174638,0.6366953 -0.4174638,0.9551035 0,0.43780967 0.1787284,0.81591173 0.5369384,1.13431733 0.3184056,0.27860806 0.6566305,0.41816525 1.0148406,0.41816525 0.3980077,0 0.7561716,-0.13955719 1.0745799,-0.41816525 0.2786053,-0.3184056 0.4181656,-0.69650766 0.4181656,-1.13431733 0,-0.3582101 -0.1794342,-0.7163691 -0.5376401,-1.0745794 C 5.5854709,-2.4307854 5.2671809,-2.570347 4.9487752,-2.570347 Z m 3.8211177,0 c -0.3980077,0 -0.7761091,0.1794339 -1.1343164,0.5376412 -0.278608,0.3184081 -0.4181657,0.6366953 -0.4181657,0.9551035 0,0.43780967 0.1794342,0.81591173 0.5376415,1.13431733 0.3184084,0.27860806 0.6566305,0.41816525 1.0148406,0.41816525 0.3980104,0 0.7561699,-0.13955719 1.0745799,-0.41816525 0.2786072,-0.3184056 0.4181652,-0.69650766 0.4181652,-1.13431733 0,-0.3582101 -0.179434,-0.7163691 -0.5376412,-1.0745794 C 9.4065886,-2.4307854 9.0883012,-2.570347 8.7698929,-2.570347 Z m 3.8211171,0 c -0.39801,0 -0.776108,0.1794339 -1.134315,0.5376412 -0.278607,0.3184081 -0.418166,0.6366953 -0.418166,0.9551035 0,0.43780967 0.17873,0.81591173 0.53694,1.13431733 0.318405,0.27860806 0.657336,0.41816525 1.015541,0.41816525 0.398013,0 0.756175,-0.13955719 1.074581,-0.41816525 0.278608,-0.3184056 0.417464,-0.69650766 0.417464,-1.13431733 0,-0.3582101 -0.178734,-0.7163691 -0.536939,-1.0745794 C 13.227707,-2.4307854 12.909421,-2.570347 12.59101,-2.570347 Z m 3.820417,0 c -0.398012,0 -0.77611,0.1794339 -1.134317,0.5376412 -0.278607,0.3184081 -0.417463,0.6366953 -0.417463,0.9551035 0,0.43780967 0.178729,0.81591173 0.536939,1.13431733 0.318406,0.27860806 0.656631,0.41816525 1.014841,0.41816525 0.398008,0 0.756171,-0.13955719 1.074581,-0.41816525 0.278603,-0.3184056 0.418165,-0.69650766 0.418165,-1.13431733 0,-0.3582101 -0.179435,-0.7163691 -0.537642,-1.0745794 -0.318408,-0.2786037 -0.636699,-0.4181653 -0.955104,-0.4181653 z m 3.821116,0 c -0.398008,0 -0.776113,0.1794339 -1.134315,0.5376412 -0.278608,0.3184081 -0.418165,0.6366953 -0.418165,0.9551035 0,0.43780967 0.179425,0.81591173 0.53764,1.13431733 0.318406,0.27860806 0.656635,0.41816525 1.01484,0.41816525 0.398012,0 0.756172,-0.13955719 1.07458,-0.41816525 0.278609,-0.3184056 0.418166,-0.69650766 0.418166,-1.13431733 0,-0.3582101 -0.17943,-0.7163691 -0.53764,-1.0745794 -0.31841,-0.2786037 -0.636696,-0.4181653 -0.955106,-0.4181653 z m 3.821118,0 c -0.398008,0 -0.776106,0.1794339 -1.134316,0.5376412 -0.278608,0.3184081 -0.418165,0.6366953 -0.418165,0.9551035 0,0.43780967 0.178724,0.81591173 0.536934,1.13431733 0.318407,0.27860806 0.65734,0.41816525 1.015547,0.41816525 0.39801,0 0.756174,-0.13955719 1.074579,-0.41816525 0.27861,-0.3184056 0.41746,-0.69650766 0.41746,-1.13431733 0,-0.3582101 -0.178725,-0.7163691 -0.536935,-1.0745794 -0.318408,-0.2786037 -0.636696,-0.4181653 -0.955104,-0.4181653 z m 3.820415,0 c -0.398009,0 -0.776114,0.1794339 -1.134319,0.5376412 -0.278609,0.3184081 -0.417462,0.6366953 -0.417462,0.9551035 0,0.43780967 0.17873,0.81591173 0.53694,1.13431733 0.318406,0.27860806 0.656631,0.41816525 1.014841,0.41816525 0.398011,0 0.756168,-0.13955719 1.074579,-0.41816525 0.278605,-0.3184056 0.418162,-0.69650766 0.418162,-1.13431733 0,-0.3582101 -0.179433,-0.7163691 -0.53764,-1.0745794 -0.31841,-0.2786037 -0.636692,-0.4181653 -0.955101,-0.4181653 z m 3.821115,0 c -0.398006,0 -0.776108,0.1794339 -1.134318,0.5376412 -0.278608,0.3184081 -0.418161,0.6366953 -0.418161,0.9551035 -5e-6,0.43780967 0.179429,0.81591173 0.53764,1.13431733 0.318406,0.27860806 0.656634,0.41816525 1.014839,0.41816525 0.398013,0 0.756168,-0.13955719 1.074582,-0.41816525 0.278609,-0.3184056 0.418166,-0.69650766 0.418166,-1.13431733 0,-0.3582101 -0.179436,-0.7163691 -0.537646,-1.0745794 -0.318405,-0.2786037 -0.636691,-0.4181653 -0.955102,-0.4181653 z m 3.82112,0 c -0.398009,0 -0.776115,0.1794339 -1.134321,0.5376412 -0.278608,0.3184081 -0.418162,0.6366953 -0.418162,0.9551035 0,0.43780967 0.179431,0.81591173 0.537642,1.13431733 0.318407,0.27860806 0.656633,0.41816525 1.014841,0.41816525 0.398009,0 0.75617,-0.13955719 1.074578,-0.41816525 0.278608,-0.3184056 0.417459,-0.69650766 0.417459,-1.13431733 0,-0.3582101 -0.178731,-0.7163691 -0.536934,-1.0745794 -0.318413,-0.2786037 -0.636696,-0.4181653 -0.955103,-0.4181653 z m 3.820412,0 c -0.398014,0 -0.776112,0.1794339 -1.134319,0.5376412 -0.278608,0.3184081 -0.41746,0.6366953 -0.41746,0.9551035 0,0.43780967 0.178725,0.81591173 0.536935,1.13431733 0.318406,0.27860806 0.656633,0.41816525 1.014844,0.41816525 0.398008,0 0.756167,-0.13955719 1.074577,-0.41816525 0.278604,-0.3184056 0.418166,-0.69650766 0.418166,-1.13431733 0,-0.3582101 -0.179431,-0.7163691 -0.537642,-1.0745794 -0.318406,-0.2786037 -0.636695,-0.4181653 -0.955101,-0.4181653 z m 3.821118,0 c -0.398012,0 -0.776113,0.1794339 -1.134319,0.5376412 -0.278609,0.3184081 -0.418166,0.6366953 -0.418166,0.9551035 0,0.43780967 0.17943,0.81591173 0.53764,1.13431733 0.318405,0.27860806 0.656634,0.41816525 1.014845,0.41816525 0.39801,0 0.75617,-0.13955719 1.074576,-0.41816525 0.278607,-0.3184056 0.418166,-0.69650766 0.418166,-1.13431733 0,-0.3582101 -0.179435,-0.7163691 -0.537641,-1.0745794 -0.318411,-0.2786037 -0.636693,-0.4181653 -0.955101,-0.4181653 z m 3.821116,0 c -0.398008,0 -0.776113,0.1794339 -1.134319,0.5376412 -0.278608,0.3184081 -0.418166,0.6366953 -0.418166,0.9551035 0,0.43780967 0.179434,0.81591173 0.537641,1.13431733 0.318405,0.27860806 0.656634,0.41816525 1.014844,0.41816525 0.398012,0 0.756168,-0.13955719 1.07458,-0.41816525 0.278608,-0.3184056 0.417461,-0.69650766 0.417461,-1.13431733 0,-0.3582101 -0.17873,-0.7163691 -0.53694,-1.0745794 -0.318405,-0.2786037 -0.636691,-0.4181653 -0.955101,-0.4181653 z m 3.820412,0 c -0.358207,0 -0.696435,0.1395616 -1.014841,0.4181653 -0.35821,0.3582103 -0.53694,0.7163693 -0.53694,1.0745794 0,0.43780967 0.13886,0.81591173 0.417465,1.13431733 0.318409,0.27860806 0.696508,0.41816525 1.134316,0.41816525 0.31841,0 0.637397,-0.13955719 0.95581,-0.41816525 0.358203,-0.3184056 0.536935,-0.69650766 0.536935,-1.13431733 0,-0.3184082 -0.139557,-0.6366954 -0.418164,-0.9551035 -0.358211,-0.3582073 -0.716371,-0.5376412 -1.074581,-0.5376412 z m 3.821121,0 c -0.358215,0 -0.69644,0.1395616 -1.014845,0.4181653 -0.35821,0.3582103 -0.53764,0.7163693 -0.53764,1.0745794 0,0.43780967 0.139557,0.81591173 0.418165,1.13431733 0.318402,0.27860806 0.696504,0.41816525 1.13432,0.41816525 0.318401,0 0.636691,-0.13955719 0.955101,-0.41816525 0.358206,-0.3184056 0.537642,-0.69650766 0.537642,-1.13431733 0,-0.3184082 -0.139563,-0.6366954 -0.418166,-0.9551035 C 55.336856,-2.3909131 54.978693,-2.570347 54.62049,-2.570347 Z m 3.821117,0 c -0.358211,0 -0.696438,0.1395616 -1.014845,0.4181653 -0.35821,0.3582103 -0.537642,0.7163693 -0.537642,1.0745794 0,0.43780967 0.139559,0.81591173 0.418166,1.13431733 0.318406,0.27860806 0.696507,0.41816525 1.134321,0.41816525 0.318405,0 0.636696,-0.13955719 0.9551,-0.41816525 0.35821,-0.3184056 0.53694,-0.69650766 0.53694,-1.13431733 0,-0.3184082 -0.138859,-0.6366954 -0.417464,-0.9551035 -0.35821,-0.3582073 -0.716366,-0.5376412 -1.074576,-0.5376412 z m 3.820411,0 c -0.35821,0 -0.696432,0.1395616 -1.014841,0.4181653 -0.358206,0.3582103 -0.536938,0.7163693 -0.536938,1.0745794 0,0.43780967 0.138859,0.81591173 0.417464,1.13431733 0.318407,0.27860806 0.696503,0.41816525 1.134315,0.41816525 0.318405,0 0.637397,-0.13955719 0.955807,-0.41816525 0.358207,-0.3184056 0.536938,-0.69650766 0.536938,-1.13431733 0,-0.3184082 -0.139564,-0.6366954 -0.418164,-0.9551035 C 62.978387,-2.3909131 62.620227,-2.570347 62.262018,-2.570347 Z M -2.6927571,1.2507702 c -0.3980145,0 -0.776105,0.1794349 -1.1343151,0.5376412 -0.2786121,0.3184096 -0.4181656,0.6366938 -0.4181656,0.9551035 0,0.437812 0.17943,0.8159115 0.5376402,1.134317 0.3184029,0.2786078 0.6566304,0.4174628 1.0148405,0.4174628 0.398005,0 0.7561784,-0.138855 1.0745812,-0.4174628 0.2786081,-0.3184055 0.4181657,-0.696505 0.4181657,-1.134317 0,-0.3582102 -0.1794314,-0.7163695 -0.5376415,-1.0745796 C -2.0560533,1.3903302 -2.3743542,1.2507702 -2.6927571,1.2507702 Z m 3.8211176,0 c -0.39801176,0 -0.77680817,0.1794349 -1.13501826,0.5376412 -0.2786107,0.3184096 -0.4174638,0.6366938 -0.4174638,0.9551035 0,0.437812 0.1787297,0.8159115 0.53693973,1.134317 0.31840154,0.2786078 0.65733496,0.4174628 1.01554233,0.4174628 0.3980103,0 0.7561742,-0.138855 1.07458,-0.4174628 0.2786079,-0.3184055 0.4174637,-0.696505 0.4174637,-1.134317 0,-0.3582102 -0.1787296,-0.7163695 -0.5369397,-1.0745796 C 1.7650602,1.3903302 1.4467689,1.2507702 1.1283605,1.2507702 Z m 3.8204147,0 c -0.3980104,0 -0.7761091,0.1794349 -1.1343152,0.5376412 -0.278608,0.3184096 -0.4174638,0.6366938 -0.4174638,0.9551035 0,0.437812 0.1787284,0.8159115 0.5369384,1.134317 0.3184056,0.2786078 0.6566305,0.4174628 1.0148406,0.4174628 0.3980077,0 0.7561716,-0.138855 1.0745799,-0.4174628 0.2786053,-0.3184055 0.4181656,-0.696505 0.4181656,-1.134317 0,-0.3582102 -0.1794342,-0.7163695 -0.5376401,-1.0745796 C 5.5854709,1.3903302 5.2671809,1.2507702 4.9487752,1.2507702 Z m 3.8211177,0 c -0.3980077,0 -0.7761091,0.1794349 -1.1343164,0.5376412 -0.278608,0.3184096 -0.4181657,0.6366938 -0.4181657,0.9551035 0,0.437812 0.1794342,0.8159115 0.5376415,1.134317 0.3184084,0.2786078 0.6566305,0.4174628 1.0148406,0.4174628 0.3980104,0 0.7561699,-0.138855 1.0745799,-0.4174628 0.2786072,-0.3184055 0.4181652,-0.696505 0.4181652,-1.134317 0,-0.3582102 -0.179434,-0.7163695 -0.5376412,-1.0745796 C 9.4065886,1.3903302 9.0883012,1.2507702 8.7698929,1.2507702 Z m 42.0294761,0 c -0.358207,0 -0.696435,0.13956 -1.014841,0.4181651 -0.35821,0.3582101 -0.53694,0.7163694 -0.53694,1.0745796 0,0.437812 0.13886,0.8159115 0.417465,1.134317 0.318409,0.2786078 0.696508,0.4174628 1.134316,0.4174628 0.31841,0 0.637397,-0.138855 0.95581,-0.4174628 0.358203,-0.3184055 0.536935,-0.696505 0.536935,-1.134317 0,-0.3184097 -0.139557,-0.6366939 -0.418164,-0.9551035 C 51.515739,1.4302051 51.157579,1.2507702 50.799369,1.2507702 Z m 3.821121,0 c -0.358215,0 -0.69644,0.13956 -1.014845,0.4181651 -0.35821,0.3582101 -0.53764,0.7163694 -0.53764,1.0745796 0,0.437812 0.139557,0.8159115 0.418165,1.134317 0.318402,0.2786078 0.696504,0.4174628 1.13432,0.4174628 0.318401,0 0.636691,-0.138855 0.955101,-0.4174628 0.358206,-0.3184055 0.537642,-0.696505 0.537642,-1.134317 0,-0.3184097 -0.139563,-0.6366939 -0.418166,-0.9551035 C 55.336856,1.4302051 54.978693,1.2507702 54.62049,1.2507702 Z m 3.821117,0 c -0.358211,0 -0.696438,0.13956 -1.014845,0.4181651 -0.35821,0.3582101 -0.537642,0.7163694 -0.537642,1.0745796 0,0.437812 0.139559,0.8159115 0.418166,1.134317 0.318406,0.2786078 0.696507,0.4174628 1.134321,0.4174628 0.318405,0 0.636696,-0.138855 0.9551,-0.4174628 0.35821,-0.3184055 0.53694,-0.696505 0.53694,-1.134317 0,-0.3184097 -0.138859,-0.6366939 -0.417464,-0.9551035 -0.35821,-0.3582063 -0.716366,-0.5376412 -1.074576,-0.5376412 z m 3.820411,0 c -0.35821,0 -0.696432,0.13956 -1.014841,0.4181651 -0.358206,0.3582101 -0.536938,0.7163694 -0.536938,1.0745796 0,0.437812 0.138859,0.8159115 0.417464,1.134317 0.318407,0.2786078 0.696503,0.4174628 1.134315,0.4174628 0.318405,0 0.637397,-0.138855 0.955807,-0.4174628 0.358207,-0.3184055 0.536938,-0.696505 0.536938,-1.134317 0,-0.3184097 -0.139564,-0.6366939 -0.418164,-0.9551035 C 62.978387,1.4302051 62.620227,1.2507702 62.262018,1.2507702 Z M -2.6927571,5.0718873 c -0.3980145,0 -0.776105,0.1787304 -1.1343151,0.5369378 -0.2786121,0.3184083 -0.4181656,0.636695 -0.4181656,0.9551023 0,0.4378098 0.17943,0.8159118 0.5376402,1.1343173 0.3184029,0.2786075 0.6566304,0.4181646 1.0148405,0.4181646 0.398005,0 0.7561784,-0.1395571 1.0745812,-0.4181646 0.2786081,-0.3184055 0.4181657,-0.6965075 0.4181657,-1.1343173 0,-0.3582091 -0.1794314,-0.7163685 -0.5376415,-1.0745786 C -2.0560533,5.210741 -2.3743542,5.0718873 -2.6927571,5.0718873 Z m 3.8211176,0 c -0.39801176,0 -0.77680817,0.1787304 -1.13501826,0.5369378 -0.2786107,0.3184083 -0.4174638,0.636695 -0.4174638,0.9551023 0,0.4378098 0.1787297,0.8159118 0.53693973,1.1343173 0.31840154,0.2786075 0.65733496,0.4181646 1.01554233,0.4181646 0.3980103,0 0.7561742,-0.1395571 1.07458,-0.4181646 C 2.4815484,7.3798392 2.6204042,7.0017372 2.6204042,6.5639274 2.6204042,6.2057183 2.4416746,5.8475589 2.0834645,5.4893488 1.7650602,5.210741 1.4467689,5.0718873 1.1283605,5.0718873 Z m 3.8204147,0 c -0.3980104,0 -0.7761091,0.1787304 -1.1343152,0.5369378 -0.278608,0.3184083 -0.4174638,0.636695 -0.4174638,0.9551023 0,0.4378098 0.1787284,0.8159118 0.5369384,1.1343173 0.3184056,0.2786075 0.6566305,0.4181646 1.0148406,0.4181646 0.3980077,0 0.7561716,-0.1395571 1.0745799,-0.4181646 C 6.3019604,7.3798392 6.4415207,7.0017372 6.4415207,6.5639274 6.4415207,6.2057183 6.2620865,5.8475589 5.9038806,5.4893488 5.5854709,5.210741 5.2671809,5.0718873 4.9487752,5.0718873 Z m 3.8211177,0 c -0.3980077,0 -0.7761091,0.1787304 -1.1343164,0.5369378 -0.278608,0.3184083 -0.4181657,0.636695 -0.4181657,0.9551023 0,0.4378098 0.1794342,0.8159118 0.5376415,1.1343173 0.3184084,0.2786075 0.6566305,0.4181646 1.0148406,0.4181646 0.3980104,0 0.7561699,-0.1395571 1.0745799,-0.4181646 C 10.12308,7.3798392 10.262638,7.0017372 10.262638,6.5639274 10.262638,6.2057183 10.083204,5.8475589 9.7249968,5.4893488 9.4065886,5.210741 9.0883012,5.0718873 8.7698929,5.0718873 Z m 42.0294761,0 c -0.358207,0 -0.696435,0.1388537 -1.014841,0.4174615 -0.35821,0.3582101 -0.53694,0.7163695 -0.53694,1.0745786 0,0.4378098 0.13886,0.8159118 0.417465,1.1343173 0.318409,0.2786075 0.696508,0.4181646 1.134316,0.4181646 0.31841,0 0.637397,-0.1395571 0.95581,-0.4181646 0.358203,-0.3184055 0.536935,-0.6965075 0.536935,-1.1343173 0,-0.3184073 -0.139557,-0.636694 -0.418164,-0.9551023 C 51.515739,5.2506177 51.157579,5.0718873 50.799369,5.0718873 Z m 3.821121,0 c -0.358215,0 -0.69644,0.1388537 -1.014845,0.4174615 -0.35821,0.3582101 -0.53764,0.7163695 -0.53764,1.0745786 0,0.4378098 0.139557,0.8159118 0.418165,1.1343173 0.318402,0.2786075 0.696504,0.4181646 1.13432,0.4181646 0.318401,0 0.636691,-0.1395571 0.955101,-0.4181646 0.358206,-0.3184055 0.537642,-0.6965075 0.537642,-1.1343173 0,-0.3184073 -0.139563,-0.636694 -0.418166,-0.9551023 C 55.336856,5.2506177 54.978693,5.0718873 54.62049,5.0718873 Z m 3.821117,0 c -0.358211,0 -0.696438,0.1388537 -1.014845,0.4174615 -0.35821,0.3582101 -0.537642,0.7163695 -0.537642,1.0745786 0,0.4378098 0.139559,0.8159118 0.418166,1.1343173 0.318406,0.2786075 0.696507,0.4181646 1.134321,0.4181646 0.318405,0 0.636696,-0.1395571 0.9551,-0.4181646 0.35821,-0.3184055 0.53694,-0.6965075 0.53694,-1.1343173 0,-0.3184073 -0.138859,-0.636694 -0.417464,-0.9551023 -0.35821,-0.3582074 -0.716366,-0.5369378 -1.074576,-0.5369378 z m 3.820411,0 c -0.35821,0 -0.696432,0.1388537 -1.014841,0.4174615 -0.358206,0.3582101 -0.536938,0.7163695 -0.536938,1.0745786 0,0.4378098 0.138859,0.8159118 0.417464,1.1343173 0.318407,0.2786075 0.696503,0.4181646 1.134315,0.4181646 0.318405,0 0.637397,-0.1395571 0.955807,-0.4181646 0.358207,-0.3184055 0.536938,-0.6965075 0.536938,-1.1343173 0,-0.3184073 -0.139564,-0.636694 -0.418164,-0.9551023 C 62.978387,5.2506177 62.620227,5.0718873 62.262018,5.0718873 Z M -2.6927571,8.8922988 c -0.3582101,0 -0.6964376,0.1395578 -1.0148405,0.4181655 -0.3582102,0.3184092 -0.5376402,0.6765662 -0.5376402,1.0745787 0,0.358206 0.1395535,0.696436 0.4181656,1.014842 0.3582101,0.358209 0.7363006,0.537641 1.1343151,0.537641 0.3184029,0 0.6367038,-0.139557 0.9551054,-0.418166 0.3582101,-0.358206 0.5376415,-0.73631 0.5376415,-1.134317 0,-0.3980125 -0.1395576,-0.7561695 -0.4181657,-1.0745787 C -1.9365787,9.0318566 -2.2947521,8.8922988 -2.6927571,8.8922988 Z m 3.8211176,0 c -0.35820737,0 -0.69714079,0.1395578 -1.01554233,0.4181655 -0.35821003,0.3184092 -0.53693973,0.6765662 -0.53693973,1.0745787 0,0.358206 0.1388531,0.696436 0.4174638,1.014842 0.35821009,0.358209 0.7370065,0.537641 1.13501826,0.537641 0.3184084,0 0.6366997,-0.139557 0.955104,-0.418166 0.3582101,-0.358206 0.5369397,-0.73631 0.5369397,-1.134317 0,-0.3980125 -0.1388558,-0.7561695 -0.4174637,-1.0745787 C 1.8845347,9.0318566 1.5263708,8.8922988 1.1283605,8.8922988 Z m 3.8204147,0 c -0.3582101,0 -0.696435,0.1395578 -1.0148406,0.4181655 -0.35821,0.3184092 -0.5369384,0.6765662 -0.5369384,1.0745787 0,0.358206 0.1388558,0.696436 0.4174638,1.014842 0.3582061,0.358209 0.7363048,0.537641 1.1343152,0.537641 0.3184057,0 0.6366957,-0.139557 0.9551054,-0.418166 0.3582059,-0.358206 0.5376401,-0.73631 0.5376401,-1.134317 0,-0.3980125 -0.1395603,-0.7561695 -0.4181656,-1.0745787 C 5.7049468,9.0318566 5.3467829,8.8922988 4.9487752,8.8922988 Z m 3.8211177,0 c -0.3582101,0 -0.6964322,0.1395578 -1.0148406,0.4181655 -0.3582073,0.3184092 -0.5376415,0.6765662 -0.5376415,1.0745787 0,0.358206 0.1395577,0.696436 0.4181657,1.014842 0.3582073,0.358209 0.7363087,0.537641 1.1343164,0.537641 0.3184083,0 0.6366957,-0.139557 0.9551039,-0.418166 0.3582072,-0.358206 0.5376412,-0.73631 0.5376412,-1.134317 0,-0.3980125 -0.139558,-0.7561695 -0.4181652,-1.0745787 C 9.5260628,9.0318566 9.1679033,8.8922988 8.7698929,8.8922988 Z m 42.0294761,0 c -0.437808,0 -0.815907,0.1395578 -1.134316,0.4181655 -0.278605,0.3184092 -0.417465,0.6765662 -0.417465,1.0745787 5e-6,0.398007 0.17873,0.776111 0.53694,1.134317 0.318406,0.278609 0.656634,0.418166 1.014841,0.418166 0.35821,0 0.71637,-0.179432 1.074581,-0.537641 0.278607,-0.318406 0.418164,-0.656636 0.418164,-1.014842 0,-0.3980125 -0.178732,-0.7561695 -0.536935,-1.0745787 -0.318413,-0.2786077 -0.6374,-0.4181655 -0.95581,-0.4181655 z m 3.821121,0 c -0.437816,0 -0.815918,0.1395578 -1.13432,0.4181655 -0.278608,0.3184092 -0.418165,0.6765662 -0.418165,1.0745787 0,0.398007 0.17943,0.776111 0.53764,1.134317 0.318405,0.278609 0.65663,0.418166 1.014845,0.418166 0.358203,0 0.716366,-0.179432 1.074577,-0.537641 0.278603,-0.318406 0.418166,-0.656636 0.418166,-1.014842 0,-0.3980125 -0.179436,-0.7561695 -0.537642,-1.0745787 -0.31841,-0.2786077 -0.6367,-0.4181655 -0.955101,-0.4181655 z m 3.821117,0 c -0.437814,0 -0.815915,0.1395578 -1.134321,0.4181655 -0.278607,0.3184092 -0.418166,0.6765662 -0.418166,1.0745787 0,0.398007 0.179432,0.776111 0.537642,1.134317 0.318407,0.278609 0.656634,0.418166 1.014845,0.418166 0.35821,0 0.716366,-0.179432 1.074576,-0.537641 0.278605,-0.318406 0.417464,-0.656636 0.417464,-1.014842 0,-0.3980125 -0.17873,-0.7561695 -0.53694,-1.0745787 -0.318404,-0.2786077 -0.636695,-0.4181655 -0.9551,-0.4181655 z m 3.820411,0 c -0.437812,0 -0.815908,0.1395578 -1.134315,0.4181655 -0.278605,0.3184092 -0.417464,0.6765662 -0.417464,1.0745787 0,0.398007 0.178732,0.776111 0.536938,1.134317 0.318409,0.278609 0.656631,0.418166 1.014841,0.418166 0.358209,0 0.716369,-0.179432 1.074581,-0.537641 0.2786,-0.318406 0.418164,-0.656636 0.418164,-1.014842 0,-0.3980125 -0.178731,-0.7561695 -0.536938,-1.0745787 C 62.899415,9.0318566 62.580423,8.8922988 62.262018,8.8922988 Z M -2.6927571,12.713416 c -0.3582101,0 -0.6964376,0.139557 -1.0148405,0.418165 -0.3582102,0.318408 -0.5376402,0.676568 -0.5376402,1.074578 0,0.358211 0.1395535,0.696438 0.4181656,1.014843 0.3582101,0.35821 0.7363006,0.536939 1.1343151,0.536939 0.3184029,0 0.6367038,-0.138854 0.9551054,-0.417464 0.3582101,-0.358206 0.5376415,-0.736309 0.5376415,-1.134318 0,-0.39801 -0.1395576,-0.75617 -0.4181657,-1.074578 -0.3184028,-0.278608 -0.6765762,-0.418165 -1.0745812,-0.418165 z m 3.8211176,0 c -0.35820737,0 -0.69714079,0.139557 -1.01554233,0.418165 -0.35821003,0.318408 -0.53693973,0.676568 -0.53693973,1.074578 0,0.358211 0.1388531,0.696438 0.4174638,1.014843 0.35821009,0.35821 0.7370065,0.536939 1.13501826,0.536939 0.3184084,0 0.6366997,-0.138854 0.955104,-0.417464 0.3582101,-0.358206 0.5369397,-0.736309 0.5369397,-1.134318 0,-0.39801 -0.1388558,-0.75617 -0.4174637,-1.074578 -0.3184058,-0.278608 -0.6765697,-0.418165 -1.07458,-0.418165 z m 3.8204147,0 c -0.3582101,0 -0.696435,0.139557 -1.0148406,0.418165 -0.35821,0.318408 -0.5369384,0.676568 -0.5369384,1.074578 0,0.358211 0.1388558,0.696438 0.4174638,1.014843 0.3582061,0.35821 0.7363048,0.536939 1.1343152,0.536939 0.3184057,0 0.6366957,-0.138854 0.9551054,-0.417464 0.3582059,-0.358206 0.5376401,-0.736309 0.5376401,-1.134318 0,-0.39801 -0.1395603,-0.75617 -0.4181656,-1.074578 C 5.7049468,12.852973 5.3467829,12.713416 4.9487752,12.713416 Z m 3.8211177,0 c -0.3582101,0 -0.6964322,0.139557 -1.0148406,0.418165 -0.3582073,0.318408 -0.5376415,0.676568 -0.5376415,1.074578 0,0.358211 0.1395577,0.696438 0.4181657,1.014843 0.3582073,0.35821 0.7363087,0.536939 1.1343164,0.536939 0.3184083,0 0.6366957,-0.138854 0.9551039,-0.417464 0.3582072,-0.358206 0.5376412,-0.736309 0.5376412,-1.134318 0,-0.39801 -0.139558,-0.75617 -0.4181652,-1.074578 -0.31841,-0.278608 -0.6765695,-0.418165 -1.0745799,-0.418165 z m 42.0294761,0 c -0.437808,0 -0.815907,0.139557 -1.134316,0.418165 -0.278605,0.318408 -0.417465,0.676568 -0.417465,1.074578 5e-6,0.398009 0.17873,0.776112 0.53694,1.134318 0.318406,0.27861 0.656634,0.417464 1.014841,0.417464 0.35821,0 0.71637,-0.178729 1.074581,-0.536939 0.278607,-0.318405 0.418164,-0.656632 0.418164,-1.014843 0,-0.39801 -0.178732,-0.75617 -0.536935,-1.074578 -0.318413,-0.278608 -0.6374,-0.418165 -0.95581,-0.418165 z m 3.821121,0 c -0.437816,0 -0.815918,0.139557 -1.13432,0.418165 -0.278608,0.318408 -0.418165,0.676568 -0.418165,1.074578 0,0.398009 0.17943,0.776112 0.53764,1.134318 0.318405,0.27861 0.65663,0.417464 1.014845,0.417464 0.358203,0 0.716366,-0.178729 1.074577,-0.536939 0.278603,-0.318405 0.418166,-0.656632 0.418166,-1.014843 0,-0.39801 -0.179436,-0.75617 -0.537642,-1.074578 -0.31841,-0.278608 -0.6367,-0.418165 -0.955101,-0.418165 z m 3.821117,0 c -0.437814,0 -0.815915,0.139557 -1.134321,0.418165 -0.278607,0.318408 -0.418166,0.676568 -0.418166,1.074578 0,0.398009 0.179432,0.776112 0.537642,1.134318 0.318407,0.27861 0.656634,0.417464 1.014845,0.417464 0.35821,0 0.716366,-0.178729 1.074576,-0.536939 0.278605,-0.318405 0.417464,-0.656632 0.417464,-1.014843 0,-0.39801 -0.17873,-0.75617 -0.53694,-1.074578 -0.318404,-0.278608 -0.636695,-0.418165 -0.9551,-0.418165 z m 3.820411,0 c -0.398009,0 -0.776105,0.179434 -1.134315,0.53764 -0.278605,0.318411 -0.417464,0.636694 -0.417464,0.955103 0,0.437811 0.178732,0.815913 0.536938,1.134318 0.318409,0.27861 0.656631,0.417464 1.014841,0.417464 0.398007,0 0.756172,-0.138854 1.074581,-0.417464 0.2786,-0.318405 0.418164,-0.696507 0.418164,-1.134318 0,-0.358209 -0.178731,-0.716368 -0.536938,-1.074578 -0.31841,-0.278608 -0.637402,-0.418165 -0.955807,-0.418165 z m -64.9547751,3.821116 c -0.3980145,0 -0.776105,0.178729 -1.1343151,0.536939 -0.2786121,0.318408 -0.4181656,0.636695 -0.4181656,0.955103 0,0.437811 0.17943,0.815909 0.5376402,1.134318 0.3184029,0.278609 0.6566304,0.418165 1.0148405,0.418165 0.398005,0 0.7561784,-0.139556 1.0745812,-0.418165 0.2786081,-0.318409 0.4181657,-0.696507 0.4181657,-1.134318 0,-0.358209 -0.1794314,-0.716372 -0.5376415,-1.074579 -0.3184016,-0.278608 -0.6367025,-0.417463 -0.9551054,-0.417463 z m 3.8211176,0 c -0.39801176,0 -0.77680817,0.178729 -1.13501826,0.536939 -0.2786107,0.318408 -0.4174638,0.636695 -0.4174638,0.955103 0,0.437811 0.1787297,0.815909 0.53693973,1.134318 0.31840154,0.278609 0.65733496,0.418165 1.01554233,0.418165 0.3980103,0 0.7561742,-0.139556 1.07458,-0.418165 0.2786079,-0.318409 0.4174637,-0.696507 0.4174637,-1.134318 0,-0.358209 -0.1787296,-0.716372 -0.5369397,-1.074579 -0.3184043,-0.278608 -0.6366956,-0.417463 -0.955104,-0.417463 z m 3.8204147,0 c -0.3980104,0 -0.7761091,0.178729 -1.1343152,0.536939 -0.278608,0.318408 -0.4174638,0.636695 -0.4174638,0.955103 0,0.437811 0.1787284,0.815909 0.5369384,1.134318 0.3184056,0.278609 0.6566305,0.418165 1.0148406,0.418165 0.3980077,0 0.7561716,-0.139556 1.0745799,-0.418165 0.2786053,-0.318409 0.4181656,-0.696507 0.4181656,-1.134318 0,-0.358209 -0.1794342,-0.716372 -0.5376401,-1.074579 C 5.5854709,16.673387 5.2671809,16.534532 4.9487752,16.534532 Z m 3.8211177,0 c -0.3980077,0 -0.7761091,0.178729 -1.1343164,0.536939 -0.278608,0.318408 -0.4181657,0.636695 -0.4181657,0.955103 0,0.437811 0.1794342,0.815909 0.5376415,1.134318 0.3184084,0.278609 0.6566305,0.418165 1.0148406,0.418165 0.3980104,0 0.7561699,-0.139556 1.0745799,-0.418165 0.2786072,-0.318409 0.4181652,-0.696507 0.4181652,-1.134318 0,-0.358209 -0.179434,-0.716372 -0.5376412,-1.074579 C 9.4065886,16.673387 9.0883012,16.534532 8.7698929,16.534532 Z m 3.8211171,0 c -0.358205,0 -0.697136,0.138855 -1.015541,0.417463 -0.35821,0.318406 -0.53694,0.676569 -0.53694,1.074579 0,0.358208 0.139559,0.69714 0.418166,1.015545 0.358207,0.35821 0.736305,0.536938 1.134315,0.536938 0.318411,0 0.636697,-0.139556 0.955106,-0.418165 0.358205,-0.358209 0.536939,-0.73631 0.536939,-1.134318 0,-0.39801 -0.138856,-0.756173 -0.417464,-1.074579 -0.318406,-0.278608 -0.676568,-0.417463 -1.074581,-0.417463 z m 3.820417,0 c -0.35821,0 -0.696435,0.138855 -1.014841,0.417463 -0.35821,0.318406 -0.536939,0.676569 -0.536939,1.074579 0,0.358208 0.138856,0.69714 0.417463,1.015545 0.358207,0.35821 0.736305,0.536938 1.134317,0.536938 0.318405,0 0.636696,-0.139556 0.955104,-0.418165 0.358207,-0.358209 0.537642,-0.73631 0.537642,-1.134318 0,-0.39801 -0.139562,-0.756173 -0.418165,-1.074579 -0.31841,-0.278608 -0.676573,-0.417463 -1.074581,-0.417463 z m 3.821116,0 c -0.358205,0 -0.696434,0.138855 -1.01484,0.417463 -0.358215,0.318406 -0.53764,0.676569 -0.53764,1.074579 0,0.358208 0.139557,0.69714 0.418165,1.015545 0.358202,0.35821 0.736307,0.536938 1.134315,0.536938 0.31841,0 0.636696,-0.139556 0.955106,-0.418165 0.35821,-0.358209 0.53764,-0.73631 0.53764,-1.134318 0,-0.39801 -0.139557,-0.756173 -0.418166,-1.074579 -0.318408,-0.278608 -0.676568,-0.417463 -1.07458,-0.417463 z m 3.821118,0 c -0.358207,0 -0.69714,0.138855 -1.015547,0.417463 -0.35821,0.318406 -0.536934,0.676569 -0.536934,1.074579 0,0.358208 0.139557,0.69714 0.418165,1.015545 0.35821,0.35821 0.736308,0.536938 1.134316,0.536938 0.318408,0 0.636696,-0.139556 0.955104,-0.418165 0.35821,-0.358209 0.536935,-0.73631 0.536935,-1.134318 0,-0.39801 -0.13885,-0.756173 -0.41746,-1.074579 -0.318405,-0.278608 -0.676569,-0.417463 -1.074579,-0.417463 z m 3.820415,0 c -0.35821,0 -0.696435,0.138855 -1.014841,0.417463 -0.35821,0.318406 -0.53694,0.676569 -0.53694,1.074579 0,0.358208 0.138853,0.69714 0.417462,1.015545 0.358205,0.35821 0.73631,0.536938 1.134319,0.536938 0.318409,0 0.636691,-0.139556 0.955101,-0.418165 0.358207,-0.358209 0.53764,-0.73631 0.53764,-1.134318 4e-6,-0.39801 -0.139557,-0.756173 -0.418162,-1.074579 -0.318411,-0.278608 -0.676568,-0.417463 -1.074579,-0.417463 z m 3.821115,0 c -0.358205,0 -0.696433,0.138855 -1.014839,0.417463 -0.358211,0.318406 -0.53764,0.676569 -0.53764,1.074579 0,0.358208 0.139553,0.69714 0.418161,1.015545 0.35821,0.35821 0.736312,0.536938 1.134318,0.536938 0.318411,0 0.636697,-0.139556 0.955102,-0.418165 0.35821,-0.358209 0.537646,-0.73631 0.537646,-1.134318 0,-0.39801 -0.139557,-0.756173 -0.418166,-1.074579 -0.318414,-0.278608 -0.676569,-0.417463 -1.074582,-0.417463 z m 3.82112,0 c -0.358208,0 -0.696434,0.138855 -1.014841,0.417463 -0.358211,0.318406 -0.537642,0.676569 -0.537642,1.074579 0,0.358208 0.139554,0.69714 0.418162,1.015545 0.358206,0.35821 0.736312,0.536938 1.134321,0.536938 0.318407,0 0.63669,-0.139556 0.955103,-0.418165 0.358203,-0.358209 0.536934,-0.73631 0.536934,-1.134318 0,-0.39801 -0.138851,-0.756173 -0.417459,-1.074579 -0.318408,-0.278608 -0.676569,-0.417463 -1.074578,-0.417463 z m 3.820412,0 c -0.358211,0 -0.696438,0.138855 -1.014844,0.417463 -0.35821,0.318406 -0.536935,0.676569 -0.536935,1.074579 0,0.358208 0.138852,0.69714 0.41746,1.015545 0.358207,0.35821 0.736305,0.536938 1.134319,0.536938 0.318406,0 0.636695,-0.139556 0.955101,-0.418165 0.358211,-0.358209 0.537642,-0.73631 0.537642,-1.134318 0,-0.39801 -0.139562,-0.756173 -0.418166,-1.074579 -0.31841,-0.278608 -0.676569,-0.417463 -1.074577,-0.417463 z m 3.821118,0 c -0.358211,0 -0.69644,0.138855 -1.014845,0.417463 -0.35821,0.318406 -0.53764,0.676569 -0.53764,1.074579 0,0.358208 0.139557,0.69714 0.418166,1.015545 0.358206,0.35821 0.736307,0.536938 1.134319,0.536938 0.318408,0 0.63669,-0.139556 0.955101,-0.418165 0.358206,-0.358209 0.537641,-0.73631 0.537641,-1.134318 0,-0.39801 -0.139559,-0.756173 -0.418166,-1.074579 -0.318406,-0.278608 -0.676566,-0.417463 -1.074576,-0.417463 z m 3.821116,0 c -0.35821,0 -0.696439,0.138855 -1.014844,0.417463 -0.358207,0.318406 -0.537641,0.676569 -0.537641,1.074579 0,0.358208 0.139558,0.69714 0.418166,1.015545 0.358206,0.35821 0.736311,0.536938 1.134319,0.536938 0.31841,0 0.636696,-0.139556 0.955101,-0.418165 0.35821,-0.358209 0.53694,-0.73631 0.53694,-1.134318 0,-0.39801 -0.138853,-0.756173 -0.417461,-1.074579 -0.318412,-0.278608 -0.676568,-0.417463 -1.07458,-0.417463 z m 3.820412,0 c -0.437808,0 -0.815907,0.138855 -1.134316,0.417463 -0.278605,0.318406 -0.417465,0.676569 -0.417465,1.074579 0,0.398008 0.17873,0.776109 0.53694,1.134318 0.318406,0.278609 0.656634,0.418165 1.014841,0.418165 0.35821,0 0.71637,-0.178728 1.074581,-0.536938 0.278607,-0.318405 0.418164,-0.657337 0.418164,-1.015545 0,-0.39801 -0.178732,-0.756173 -0.536935,-1.074579 -0.318413,-0.278608 -0.6374,-0.417463 -0.95581,-0.417463 z m 3.821121,0 c -0.437816,0 -0.815918,0.138855 -1.13432,0.417463 -0.278608,0.318406 -0.418165,0.676569 -0.418165,1.074579 0,0.398008 0.17943,0.776109 0.53764,1.134318 0.318405,0.278609 0.65663,0.418165 1.014845,0.418165 0.358203,0 0.716366,-0.178728 1.074577,-0.536938 0.278603,-0.318405 0.418166,-0.657337 0.418166,-1.015545 0,-0.39801 -0.179436,-0.756173 -0.537642,-1.074579 -0.31841,-0.278608 -0.6367,-0.417463 -0.955101,-0.417463 z m 3.821117,0 c -0.437814,0 -0.815915,0.138855 -1.134321,0.417463 -0.278607,0.318406 -0.418166,0.676569 -0.418166,1.074579 0,0.398008 0.179432,0.776109 0.537642,1.134318 0.318407,0.278609 0.656634,0.418165 1.014845,0.418165 0.35821,0 0.716366,-0.178728 1.074576,-0.536938 0.278605,-0.318405 0.417464,-0.657337 0.417464,-1.015545 0,-0.39801 -0.17873,-0.756173 -0.53694,-1.074579 -0.318404,-0.278608 -0.636695,-0.417463 -0.9551,-0.417463 z m 3.820411,0 c -0.437812,0 -0.815908,0.138855 -1.134315,0.417463 -0.278605,0.318406 -0.417464,0.676569 -0.417464,1.074579 0,0.398008 0.178732,0.776109 0.536938,1.134318 0.318409,0.278609 0.656631,0.418165 1.014841,0.418165 0.358209,0 0.716369,-0.178728 1.074581,-0.536938 0.2786,-0.318405 0.418164,-0.657337 0.418164,-1.015545 0,-0.39801 -0.178731,-0.756173 -0.536938,-1.074579 -0.31841,-0.278608 -0.637402,-0.417463 -0.955807,-0.417463 z m -64.9547751,3.820415 c -0.3980145,0 -0.776105,0.179431 -1.1343151,0.537641 -0.2786121,0.318411 -0.4181656,0.636693 -0.4181656,0.955103 0,0.437808 0.17943,0.815912 0.5376402,1.134318 0.3184029,0.278607 0.6566304,0.418165 1.0148405,0.418165 0.398005,0 0.7561784,-0.139558 1.0745812,-0.418165 0.2786081,-0.318406 0.4181657,-0.69651 0.4181657,-1.134318 0,-0.358209 -0.1794314,-0.716368 -0.5376415,-1.074578 -0.3184016,-0.278608 -0.6367025,-0.418166 -0.9551054,-0.418166 z m 3.8211176,0 c -0.39801176,0 -0.77680817,0.179431 -1.13501826,0.537641 -0.2786107,0.318411 -0.4174638,0.636693 -0.4174638,0.955103 0,0.437808 0.1787297,0.815912 0.53693973,1.134318 0.31840154,0.278607 0.65733496,0.418165 1.01554233,0.418165 0.3980103,0 0.7561742,-0.139558 1.07458,-0.418165 0.2786079,-0.318406 0.4174637,-0.69651 0.4174637,-1.134318 0,-0.358209 -0.1787296,-0.716368 -0.5369397,-1.074578 -0.3184043,-0.278608 -0.6366956,-0.418166 -0.955104,-0.418166 z m 3.8204147,0 c -0.3980104,0 -0.7761091,0.179431 -1.1343152,0.537641 -0.278608,0.318411 -0.4174638,0.636693 -0.4174638,0.955103 0,0.437808 0.1787284,0.815912 0.5369384,1.134318 0.3184056,0.278607 0.6566305,0.418165 1.0148406,0.418165 0.3980077,0 0.7561716,-0.139558 1.0745799,-0.418165 0.2786053,-0.318406 0.4181656,-0.69651 0.4181656,-1.134318 0,-0.358209 -0.1794342,-0.716368 -0.5376401,-1.074578 C 5.5854709,20.494505 5.2671809,20.354947 4.9487752,20.354947 Z m 3.8211177,0 c -0.3980077,0 -0.7761091,0.179431 -1.1343164,0.537641 -0.278608,0.318411 -0.4181657,0.636693 -0.4181657,0.955103 0,0.437808 0.1794342,0.815912 0.5376415,1.134318 0.3184084,0.278607 0.6566305,0.418165 1.0148406,0.418165 0.3980104,0 0.7561699,-0.139558 1.0745799,-0.418165 0.2786072,-0.318406 0.4181652,-0.69651 0.4181652,-1.134318 0,-0.358209 -0.179434,-0.716368 -0.5376412,-1.074578 C 9.4065886,20.494505 9.0883012,20.354947 8.7698929,20.354947 Z m 3.8211171,0 c -0.358205,0 -0.697136,0.139558 -1.015541,0.418166 -0.35821,0.318408 -0.53694,0.676567 -0.53694,1.074578 0,0.358207 0.139559,0.696432 0.418166,1.014841 0.358207,0.358211 0.736305,0.537642 1.134315,0.537642 0.318411,0 0.636697,-0.139558 0.955106,-0.418165 0.358205,-0.358207 0.536939,-0.73631 0.536939,-1.134318 0,-0.398011 -0.138856,-0.75617 -0.417464,-1.074578 -0.318406,-0.278608 -0.676568,-0.418166 -1.074581,-0.418166 z m 3.820417,0 c -0.35821,0 -0.696435,0.139558 -1.014841,0.418166 -0.35821,0.318408 -0.536939,0.676567 -0.536939,1.074578 0,0.358207 0.138856,0.696432 0.417463,1.014841 0.358207,0.358211 0.736305,0.537642 1.134317,0.537642 0.318405,0 0.636696,-0.139558 0.955104,-0.418165 0.358207,-0.358207 0.537642,-0.73631 0.537642,-1.134318 0,-0.398011 -0.139562,-0.75617 -0.418165,-1.074578 -0.31841,-0.278608 -0.676573,-0.418166 -1.074581,-0.418166 z m 3.821116,0 c -0.358205,0 -0.696434,0.139558 -1.01484,0.418166 -0.358215,0.318408 -0.53764,0.676567 -0.53764,1.074578 0,0.358207 0.139557,0.696432 0.418165,1.014841 0.358202,0.358211 0.736307,0.537642 1.134315,0.537642 0.31841,0 0.636696,-0.139558 0.955106,-0.418165 0.35821,-0.358207 0.53764,-0.73631 0.53764,-1.134318 0,-0.398011 -0.139557,-0.75617 -0.418166,-1.074578 -0.318408,-0.278608 -0.676568,-0.418166 -1.07458,-0.418166 z m 3.821118,0 c -0.358207,0 -0.69714,0.139558 -1.015547,0.418166 -0.35821,0.318408 -0.536934,0.676567 -0.536934,1.074578 0,0.358207 0.139557,0.696432 0.418165,1.014841 0.35821,0.358211 0.736308,0.537642 1.134316,0.537642 0.318408,0 0.636696,-0.139558 0.955104,-0.418165 0.35821,-0.358207 0.536935,-0.73631 0.536935,-1.134318 0,-0.398011 -0.13885,-0.75617 -0.41746,-1.074578 -0.318405,-0.278608 -0.676569,-0.418166 -1.074579,-0.418166 z m 3.820415,0 c -0.35821,0 -0.696435,0.139558 -1.014841,0.418166 -0.35821,0.318408 -0.53694,0.676567 -0.53694,1.074578 0,0.358207 0.138853,0.696432 0.417462,1.014841 0.358205,0.358211 0.73631,0.537642 1.134319,0.537642 0.318409,0 0.636691,-0.139558 0.955101,-0.418165 0.358207,-0.358207 0.53764,-0.73631 0.53764,-1.134318 0,-0.398011 -0.139557,-0.75617 -0.418162,-1.074578 -0.318411,-0.278608 -0.676568,-0.418166 -1.074579,-0.418166 z m 3.821115,0 c -0.358205,0 -0.696433,0.139558 -1.014839,0.418166 -0.358211,0.318408 -0.53764,0.676567 -0.53764,1.074578 -5e-6,0.358207 0.139553,0.696432 0.418161,1.014841 0.35821,0.358211 0.736312,0.537642 1.134318,0.537642 0.318411,0 0.636697,-0.139558 0.955102,-0.418165 0.35821,-0.358207 0.537646,-0.73631 0.537646,-1.134318 0,-0.398011 -0.139557,-0.75617 -0.418166,-1.074578 -0.318414,-0.278608 -0.676569,-0.418166 -1.074582,-0.418166 z m 3.82112,0 c -0.358208,0 -0.696434,0.139558 -1.014841,0.418166 -0.358211,0.318408 -0.537642,0.676567 -0.537642,1.074578 0,0.358207 0.139554,0.696432 0.418162,1.014841 0.358206,0.358211 0.736312,0.537642 1.134321,0.537642 0.318407,0 0.63669,-0.139558 0.955103,-0.418165 0.358203,-0.358207 0.536934,-0.73631 0.536934,-1.134318 0,-0.398011 -0.138851,-0.75617 -0.417459,-1.074578 -0.318408,-0.278608 -0.676569,-0.418166 -1.074578,-0.418166 z m 3.820412,0 c -0.358211,0 -0.696438,0.139558 -1.014844,0.418166 -0.35821,0.318408 -0.536935,0.676567 -0.536935,1.074578 0,0.358207 0.138852,0.696432 0.41746,1.014841 0.358207,0.358211 0.736305,0.537642 1.134319,0.537642 0.318406,0 0.636695,-0.139558 0.955101,-0.418165 0.358211,-0.358207 0.537642,-0.73631 0.537642,-1.134318 0,-0.398011 -0.139562,-0.75617 -0.418166,-1.074578 -0.31841,-0.278608 -0.676569,-0.418166 -1.074577,-0.418166 z m 3.821118,0 c -0.358211,0 -0.69644,0.139558 -1.014845,0.418166 -0.35821,0.318408 -0.53764,0.676567 -0.53764,1.074578 0,0.358207 0.139557,0.696432 0.418166,1.014841 0.358206,0.358211 0.736307,0.537642 1.134319,0.537642 0.318408,0 0.63669,-0.139558 0.955101,-0.418165 0.358206,-0.358207 0.537641,-0.73631 0.537641,-1.134318 0,-0.398011 -0.139559,-0.75617 -0.418166,-1.074578 -0.318406,-0.278608 -0.676566,-0.418166 -1.074576,-0.418166 z m 3.821116,0 c -0.35821,0 -0.696439,0.139558 -1.014844,0.418166 -0.358207,0.318408 -0.537641,0.676567 -0.537641,1.074578 0,0.358207 0.139558,0.696432 0.418166,1.014841 0.358206,0.358211 0.736311,0.537642 1.134319,0.537642 0.31841,0 0.636696,-0.139558 0.955101,-0.418165 0.35821,-0.358207 0.53694,-0.73631 0.53694,-1.134318 0,-0.398011 -0.138853,-0.75617 -0.417461,-1.074578 -0.318412,-0.278608 -0.676568,-0.418166 -1.07458,-0.418166 z m 3.820412,0 c -0.437808,0 -0.815907,0.139558 -1.134316,0.418166 -0.278605,0.318408 -0.417465,0.676567 -0.417465,1.074578 5e-6,0.398008 0.17873,0.776111 0.53694,1.134318 0.318406,0.278607 0.656634,0.418165 1.014841,0.418165 0.35821,0 0.71637,-0.179431 1.074581,-0.537642 0.278607,-0.318409 0.418164,-0.656634 0.418164,-1.014841 0,-0.398011 -0.178732,-0.75617 -0.536935,-1.074578 -0.318413,-0.278608 -0.6374,-0.418166 -0.95581,-0.418166 z m 3.821121,0 c -0.398015,0 -0.776117,0.179431 -1.13432,0.537641 -0.278608,0.318411 -0.418165,0.636693 -0.418165,0.955103 0,0.437808 0.17943,0.815912 0.53764,1.134318 0.318405,0.278607 0.65663,0.418165 1.014845,0.418165 0.398003,0 0.756168,-0.139558 1.074577,-0.418165 0.278603,-0.318406 0.418166,-0.69651 0.418166,-1.134318 0,-0.358209 -0.179436,-0.716368 -0.537642,-1.074578 -0.31841,-0.278608 -0.6367,-0.418166 -0.955101,-0.418166 z m 3.821117,0 c -0.398016,0 -0.776113,0.179431 -1.134321,0.537641 -0.278607,0.318411 -0.418166,0.636693 -0.418166,0.955103 0,0.437808 0.179432,0.815912 0.537642,1.134318 0.318407,0.278607 0.656634,0.418165 1.014845,0.418165 0.398007,0 0.75617,-0.139558 1.074576,-0.418165 0.278605,-0.318406 0.417464,-0.69651 0.417464,-1.134318 0,-0.358209 -0.17873,-0.716368 -0.53694,-1.074578 -0.318404,-0.278608 -0.636695,-0.418166 -0.9551,-0.418166 z m -61.1343641,3.821118 c -0.3980145,0 -0.776105,0.179432 -1.1343151,0.53764 -0.2786121,0.318408 -0.4181656,0.636695 -0.4181656,0.955104 0,0.43781 0.17943,0.815912 0.5376402,1.134317 0.3184029,0.278608 0.6566304,0.417463 1.0148405,0.417463 0.398005,0 0.7561784,-0.138855 1.0745812,-0.417463 0.2786081,-0.318405 0.4181657,-0.696507 0.4181657,-1.134317 0,-0.35821 -0.1794314,-0.716369 -0.5376415,-1.07458 -0.3184016,-0.278607 -0.6367025,-0.418164 -0.9551054,-0.418164 z m 3.8211176,0 c -0.39801176,0 -0.77680817,0.179432 -1.13501826,0.53764 -0.2786107,0.318408 -0.4174638,0.636695 -0.4174638,0.955104 0,0.43781 0.1787297,0.815912 0.53693973,1.134317 0.31840154,0.278608 0.65733496,0.417463 1.01554233,0.417463 0.3980103,0 0.7561742,-0.138855 1.07458,-0.417463 0.2786079,-0.318405 0.4174637,-0.696507 0.4174637,-1.134317 0,-0.35821 -0.1787296,-0.716369 -0.5369397,-1.07458 -0.3184043,-0.278607 -0.6366956,-0.418164 -0.955104,-0.418164 z m 3.8204147,0 c -0.3980104,0 -0.7761091,0.179432 -1.1343152,0.53764 -0.278608,0.318408 -0.4174638,0.636695 -0.4174638,0.955104 0,0.43781 0.1787284,0.815912 0.5369384,1.134317 0.3184056,0.278608 0.6566305,0.417463 1.0148406,0.417463 0.3980077,0 0.7561716,-0.138855 1.0745799,-0.417463 0.2786053,-0.318405 0.4181656,-0.696507 0.4181656,-1.134317 0,-0.35821 -0.1794342,-0.716369 -0.5376401,-1.07458 C 5.5854709,24.315622 5.2671809,24.176065 4.9487752,24.176065 Z m 3.8211177,0 c -0.3980077,0 -0.7761091,0.179432 -1.1343164,0.53764 -0.278608,0.318408 -0.4181657,0.636695 -0.4181657,0.955104 0,0.43781 0.1794342,0.815912 0.5376415,1.134317 0.3184084,0.278608 0.6566305,0.417463 1.0148406,0.417463 0.3980104,0 0.7561699,-0.138855 1.0745799,-0.417463 0.2786072,-0.318405 0.4181652,-0.696507 0.4181652,-1.134317 0,-0.35821 -0.179434,-0.716369 -0.5376412,-1.07458 C 9.4065886,24.315622 9.0883012,24.176065 8.7698929,24.176065 Z m 3.8211171,0 c -0.358205,0 -0.697136,0.139557 -1.015541,0.418164 -0.35821,0.31841 -0.53694,0.676569 -0.53694,1.07458 0,0.358207 0.139559,0.696433 0.418166,1.014842 0.358207,0.35821 0.736305,0.536938 1.134315,0.536938 0.318411,0 0.636697,-0.138855 0.955106,-0.417463 0.358205,-0.358206 0.536939,-0.736309 0.536939,-1.134317 0,-0.398011 -0.138856,-0.75617 -0.417464,-1.07458 -0.318406,-0.278607 -0.676568,-0.418164 -1.074581,-0.418164 z m 3.820417,0 c -0.35821,0 -0.696435,0.139557 -1.014841,0.418164 -0.35821,0.31841 -0.536939,0.676569 -0.536939,1.07458 0,0.358207 0.138856,0.696433 0.417463,1.014842 0.358207,0.35821 0.736305,0.536938 1.134317,0.536938 0.318405,0 0.636696,-0.138855 0.955104,-0.417463 0.358207,-0.358206 0.537642,-0.736309 0.537642,-1.134317 0,-0.398011 -0.139562,-0.75617 -0.418165,-1.07458 -0.31841,-0.278607 -0.676573,-0.418164 -1.074581,-0.418164 z m 3.821116,0 c -0.358205,0 -0.696434,0.139557 -1.01484,0.418164 -0.358215,0.31841 -0.53764,0.676569 -0.53764,1.07458 0,0.358207 0.139557,0.696433 0.418165,1.014842 0.358202,0.35821 0.736307,0.536938 1.134315,0.536938 0.31841,0 0.636696,-0.138855 0.955106,-0.417463 0.35821,-0.358206 0.53764,-0.736309 0.53764,-1.134317 0,-0.398011 -0.139557,-0.75617 -0.418166,-1.07458 -0.318408,-0.278607 -0.676568,-0.418164 -1.07458,-0.418164 z m 3.821118,0 c -0.358207,0 -0.69714,0.139557 -1.015547,0.418164 -0.35821,0.31841 -0.536934,0.676569 -0.536934,1.07458 0,0.358207 0.139557,0.696433 0.418165,1.014842 0.35821,0.35821 0.736308,0.536938 1.134316,0.536938 0.318408,0 0.636696,-0.138855 0.955104,-0.417463 0.35821,-0.358206 0.536935,-0.736309 0.536935,-1.134317 0,-0.398011 -0.13885,-0.75617 -0.41746,-1.07458 -0.318405,-0.278607 -0.676569,-0.418164 -1.074579,-0.418164 z m 3.820415,0 c -0.35821,0 -0.696435,0.139557 -1.014841,0.418164 -0.35821,0.31841 -0.53694,0.676569 -0.53694,1.07458 0,0.358207 0.138853,0.696433 0.417462,1.014842 0.358205,0.35821 0.73631,0.536938 1.134319,0.536938 0.318409,0 0.636691,-0.138855 0.955101,-0.417463 0.358207,-0.358206 0.53764,-0.736309 0.53764,-1.134317 4e-6,-0.398011 -0.139557,-0.75617 -0.418162,-1.07458 -0.318411,-0.278607 -0.676568,-0.418164 -1.074579,-0.418164 z m 3.821115,0 c -0.358205,0 -0.696433,0.139557 -1.014839,0.418164 -0.358211,0.31841 -0.53764,0.676569 -0.53764,1.07458 0,0.358207 0.139553,0.696433 0.418161,1.014842 0.35821,0.35821 0.736312,0.536938 1.134318,0.536938 0.318411,0 0.636697,-0.138855 0.955102,-0.417463 0.35821,-0.358206 0.537646,-0.736309 0.537646,-1.134317 0,-0.398011 -0.139557,-0.75617 -0.418166,-1.07458 -0.318414,-0.278607 -0.676569,-0.418164 -1.074582,-0.418164 z m 3.82112,0 c -0.358208,0 -0.696434,0.139557 -1.014841,0.418164 -0.358211,0.31841 -0.537642,0.676569 -0.537642,1.07458 0,0.358207 0.139554,0.696433 0.418162,1.014842 0.358206,0.35821 0.736312,0.536938 1.134321,0.536938 0.318407,0 0.63669,-0.138855 0.955103,-0.417463 0.358203,-0.358206 0.536934,-0.736309 0.536934,-1.134317 0,-0.398011 -0.138851,-0.75617 -0.417459,-1.07458 -0.318408,-0.278607 -0.676569,-0.418164 -1.074578,-0.418164 z m 3.820412,0 c -0.358211,0 -0.696438,0.139557 -1.014844,0.418164 -0.35821,0.31841 -0.536935,0.676569 -0.536935,1.07458 0,0.358207 0.138852,0.696433 0.41746,1.014842 0.358207,0.35821 0.736305,0.536938 1.134319,0.536938 0.318406,0 0.636695,-0.138855 0.955101,-0.417463 0.358211,-0.358206 0.537642,-0.736309 0.537642,-1.134317 0,-0.398011 -0.139562,-0.75617 -0.418166,-1.07458 -0.31841,-0.278607 -0.676569,-0.418164 -1.074577,-0.418164 z m 3.821118,0 c -0.358211,0 -0.69644,0.139557 -1.014845,0.418164 -0.35821,0.31841 -0.53764,0.676569 -0.53764,1.07458 0,0.358207 0.139557,0.696433 0.418166,1.014842 0.358206,0.35821 0.736307,0.536938 1.134319,0.536938 0.318408,0 0.63669,-0.138855 0.955101,-0.417463 0.358206,-0.358206 0.537641,-0.736309 0.537641,-1.134317 0,-0.398011 -0.139559,-0.75617 -0.418166,-1.07458 -0.318406,-0.278607 -0.676566,-0.418164 -1.074576,-0.418164 z m 3.821116,0 c -0.35821,0 -0.696439,0.139557 -1.014844,0.418164 -0.358207,0.31841 -0.537641,0.676569 -0.537641,1.07458 0,0.358207 0.139558,0.696433 0.418166,1.014842 0.358206,0.35821 0.736311,0.536938 1.134319,0.536938 0.31841,0 0.636696,-0.138855 0.955101,-0.417463 0.35821,-0.358206 0.53694,-0.736309 0.53694,-1.134317 0,-0.398011 -0.138853,-0.75617 -0.417461,-1.07458 -0.318412,-0.278607 -0.676568,-0.418164 -1.07458,-0.418164 z m 3.820412,0 c -0.437808,0 -0.815907,0.139557 -1.134316,0.418164 -0.278605,0.31841 -0.417465,0.676569 -0.417465,1.07458 0,0.398008 0.17873,0.776111 0.53694,1.134317 0.318406,0.278608 0.656634,0.417463 1.014841,0.417463 0.35821,0 0.71637,-0.178728 1.074581,-0.536938 0.278607,-0.318409 0.418164,-0.656635 0.418164,-1.014842 0,-0.398011 -0.178732,-0.75617 -0.536935,-1.07458 -0.318413,-0.278607 -0.6374,-0.418164 -0.95581,-0.418164 z m 3.821121,0 c -0.398015,0 -0.776117,0.179432 -1.13432,0.53764 -0.278608,0.318408 -0.418165,0.636695 -0.418165,0.955104 0,0.43781 0.17943,0.815912 0.53764,1.134317 0.318405,0.278608 0.65663,0.417463 1.014845,0.417463 0.398003,0 0.756168,-0.138855 1.074577,-0.417463 0.278603,-0.318405 0.418166,-0.696507 0.418166,-1.134317 0,-0.35821 -0.179436,-0.716369 -0.537642,-1.07458 -0.31841,-0.278607 -0.6367,-0.418164 -0.955101,-0.418164 z m -57.3132471,3.821116 c -0.3980145,0 -0.776105,0.178727 -1.1343151,0.536938 -0.2786121,0.318406 -0.4181656,0.636695 -0.4181656,0.955105 0,0.437807 0.17943,0.815907 0.5376402,1.134316 0.3184029,0.278608 0.6566304,0.418165 1.0148405,0.418165 0.398005,0 0.7561784,-0.139557 1.0745812,-0.418165 0.2786081,-0.318409 0.4181657,-0.696509 0.4181657,-1.134316 0,-0.358211 -0.1794314,-0.716375 -0.5376415,-1.07458 -0.3184016,-0.278609 -0.6367025,-0.417463 -0.9551054,-0.417463 z m 3.8211176,0 c -0.39801176,0 -0.77680817,0.178727 -1.13501826,0.536938 -0.2786107,0.318406 -0.4174638,0.636695 -0.4174638,0.955105 0,0.437807 0.1787297,0.815907 0.53693973,1.134316 0.31840154,0.278608 0.65733496,0.418165 1.01554233,0.418165 0.3980103,0 0.7561742,-0.139557 1.07458,-0.418165 0.2786079,-0.318409 0.4174637,-0.696509 0.4174637,-1.134316 0,-0.358211 -0.1787296,-0.716375 -0.5369397,-1.07458 -0.3184043,-0.278609 -0.6366956,-0.417463 -0.955104,-0.417463 z m 3.8204147,0 c -0.3980104,0 -0.7761091,0.178727 -1.1343152,0.536938 -0.278608,0.318406 -0.4174638,0.636695 -0.4174638,0.955105 0,0.437807 0.1787284,0.815907 0.5369384,1.134316 0.3184056,0.278608 0.6566305,0.418165 1.0148406,0.418165 0.3980077,0 0.7561716,-0.139557 1.0745799,-0.418165 0.2786053,-0.318409 0.4181656,-0.696509 0.4181656,-1.134316 0,-0.358211 -0.1794342,-0.716375 -0.5376401,-1.07458 C 5.5854709,28.136035 5.2671809,27.997181 4.9487752,27.997181 Z m 3.8211177,0 c -0.3980077,0 -0.7761091,0.178727 -1.1343164,0.536938 -0.278608,0.318406 -0.4181657,0.636695 -0.4181657,0.955105 0,0.437807 0.1794342,0.815907 0.5376415,1.134316 0.3184084,0.278608 0.6566305,0.418165 1.0148406,0.418165 0.3980104,0 0.7561699,-0.139557 1.0745799,-0.418165 0.2786072,-0.318409 0.4181652,-0.696509 0.4181652,-1.134316 0,-0.358211 -0.179434,-0.716375 -0.5376412,-1.07458 C 9.4065886,28.136035 9.0883012,27.997181 8.7698929,27.997181 Z m 3.8211171,0 c -0.358205,0 -0.697136,0.138854 -1.015541,0.417463 -0.35821,0.318406 -0.53694,0.676568 -0.53694,1.07458 0,0.358206 0.139559,0.697137 0.418166,1.015543 0.358207,0.35821 0.736305,0.536938 1.134315,0.536938 0.318411,0 0.636697,-0.139557 0.955106,-0.418165 0.358205,-0.35821 0.536939,-0.736309 0.536939,-1.134316 0,-0.398012 -0.138856,-0.756174 -0.417464,-1.07458 -0.318406,-0.278609 -0.676568,-0.417463 -1.074581,-0.417463 z m 3.820417,0 c -0.35821,0 -0.696435,0.138854 -1.014841,0.417463 -0.35821,0.318406 -0.536939,0.676568 -0.536939,1.07458 0,0.358206 0.138856,0.697137 0.417463,1.015543 0.358207,0.35821 0.736305,0.536938 1.134317,0.536938 0.318405,0 0.636696,-0.139557 0.955104,-0.418165 0.358207,-0.35821 0.537642,-0.736309 0.537642,-1.134316 0,-0.398012 -0.139562,-0.756174 -0.418165,-1.07458 -0.31841,-0.278609 -0.676573,-0.417463 -1.074581,-0.417463 z m 3.821116,0 c -0.358205,0 -0.696434,0.138854 -1.01484,0.417463 -0.358215,0.318406 -0.53764,0.676568 -0.53764,1.07458 0,0.358206 0.139557,0.697137 0.418165,1.015543 0.358202,0.35821 0.736307,0.536938 1.134315,0.536938 0.31841,0 0.636696,-0.139557 0.955106,-0.418165 0.35821,-0.35821 0.53764,-0.736309 0.53764,-1.134316 0,-0.398012 -0.139557,-0.756174 -0.418166,-1.07458 -0.318408,-0.278609 -0.676568,-0.417463 -1.07458,-0.417463 z m 3.821118,0 c -0.358207,0 -0.69714,0.138854 -1.015547,0.417463 -0.35821,0.318406 -0.536934,0.676568 -0.536934,1.07458 0,0.358206 0.139557,0.697137 0.418165,1.015543 0.35821,0.35821 0.736308,0.536938 1.134316,0.536938 0.318408,0 0.636696,-0.139557 0.955104,-0.418165 0.35821,-0.35821 0.536935,-0.736309 0.536935,-1.134316 0,-0.398012 -0.13885,-0.756174 -0.41746,-1.07458 -0.318405,-0.278609 -0.676569,-0.417463 -1.074579,-0.417463 z m 3.820415,0 c -0.35821,0 -0.696435,0.138854 -1.014841,0.417463 -0.35821,0.318406 -0.53694,0.676568 -0.53694,1.07458 0,0.358206 0.138853,0.697137 0.417462,1.015543 0.358205,0.35821 0.73631,0.536938 1.134319,0.536938 0.318409,0 0.636691,-0.139557 0.955101,-0.418165 0.358207,-0.35821 0.53764,-0.736309 0.53764,-1.134316 0,-0.398012 -0.139557,-0.756174 -0.418162,-1.07458 -0.318411,-0.278609 -0.676568,-0.417463 -1.074579,-0.417463 z m 3.821115,0 c -0.358205,0 -0.696433,0.138854 -1.014839,0.417463 -0.358211,0.318406 -0.53764,0.676568 -0.53764,1.07458 0,0.358206 0.139553,0.697137 0.418161,1.015543 0.35821,0.35821 0.736312,0.536938 1.134318,0.536938 0.318411,0 0.636697,-0.139557 0.955102,-0.418165 0.35821,-0.35821 0.537646,-0.736309 0.537646,-1.134316 0,-0.398012 -0.139557,-0.756174 -0.418166,-1.07458 -0.318414,-0.278609 -0.676569,-0.417463 -1.074582,-0.417463 z m 3.82112,0 c -0.358208,0 -0.696434,0.138854 -1.014841,0.417463 -0.358211,0.318406 -0.537642,0.676568 -0.537642,1.07458 0,0.358206 0.139554,0.697137 0.418162,1.015543 0.358206,0.35821 0.736312,0.536938 1.134321,0.536938 0.318407,0 0.63669,-0.139557 0.955103,-0.418165 0.358203,-0.35821 0.536934,-0.736309 0.536934,-1.134316 0,-0.398012 -0.138851,-0.756174 -0.417459,-1.07458 -0.318408,-0.278609 -0.676569,-0.417463 -1.074578,-0.417463 z m 3.820412,0 c -0.358211,0 -0.696438,0.138854 -1.014844,0.417463 -0.35821,0.318406 -0.536935,0.676568 -0.536935,1.07458 0,0.358206 0.138852,0.697137 0.41746,1.015543 0.358207,0.35821 0.736305,0.536938 1.134319,0.536938 0.318406,0 0.636695,-0.139557 0.955101,-0.418165 0.358211,-0.35821 0.537642,-0.736309 0.537642,-1.134316 0,-0.398012 -0.139562,-0.756174 -0.418166,-1.07458 -0.31841,-0.278609 -0.676569,-0.417463 -1.074577,-0.417463 z m 3.821118,0 c -0.358211,0 -0.69644,0.138854 -1.014845,0.417463 -0.35821,0.318406 -0.53764,0.676568 -0.53764,1.07458 0,0.358206 0.139557,0.697137 0.418166,1.015543 0.358206,0.35821 0.736307,0.536938 1.134319,0.536938 0.318408,0 0.63669,-0.139557 0.955101,-0.418165 0.358206,-0.35821 0.537641,-0.736309 0.537641,-1.134316 0,-0.398012 -0.139559,-0.756174 -0.418166,-1.07458 -0.318406,-0.278609 -0.676566,-0.417463 -1.074576,-0.417463 z m 3.821116,0 c -0.398008,0 -0.776113,0.178727 -1.134319,0.536938 -0.278608,0.318406 -0.418166,0.636695 -0.418166,0.955105 0,0.437807 0.179434,0.815907 0.537641,1.134316 0.318405,0.278608 0.656634,0.418165 1.014844,0.418165 0.398012,0 0.756168,-0.139557 1.07458,-0.418165 0.278608,-0.318409 0.417461,-0.696509 0.417461,-1.134316 0,-0.358211 -0.17873,-0.716375 -0.53694,-1.07458 -0.318405,-0.278609 -0.636691,-0.417463 -0.955101,-0.417463 z m 3.820412,0 c -0.437808,0 -0.815907,0.138854 -1.134316,0.417463 -0.278605,0.318406 -0.417465,0.676568 -0.417465,1.07458 0,0.398007 0.17873,0.776106 0.53694,1.134316 0.318406,0.278608 0.656634,0.418165 1.014841,0.418165 0.35821,0 0.71637,-0.178728 1.074581,-0.536938 0.278607,-0.318406 0.418164,-0.657337 0.418164,-1.015543 0,-0.398012 -0.178732,-0.756174 -0.536935,-1.07458 -0.318413,-0.278609 -0.6374,-0.417463 -0.95581,-0.417463 z" />
  </g>
</svg>
