<?xml version="1.0" encoding="UTF-8" standalone="no"?>
<svg
   version="1.1"
   width="448"
   height="512"
   id="svg4"
   sodipodi:docname="pug_icon_512.svg"
   inkscape:version="1.1.1 (3bf5ae0d25, 2021-09-20)"
   xmlns:inkscape="http://www.inkscape.org/namespaces/inkscape"
   xmlns:sodipodi="http://sodipodi.sourceforge.net/DTD/sodipodi-0.dtd"
   xmlns="http://www.w3.org/2000/svg"
   xmlns:svg="http://www.w3.org/2000/svg">
  <defs
     id="defs8" />
  <sodipodi:namedview
     id="namedview6"
     pagecolor="#ffffff"
     bordercolor="#111111"
     borderopacity="1"
     inkscape:pageshadow="0"
     inkscape:pageopacity="0"
     inkscape:pagecheckerboard="1"
     showgrid="false"
     inkscape:lockguides="false"
     showguides="true"
     inkscape:guide-bbox="true"
     inkscape:zoom="0.70710678"
     inkscape:cx="202.93965"
     inkscape:cy="325.97623"
     inkscape:window-width="1360"
     inkscape:window-height="745"
     inkscape:window-x="-8"
     inkscape:window-y="-8"
     inkscape:window-maximized="1"
     inkscape:current-layer="svg4">
    <sodipodi:guide
       position="54.857143,512"
       orientation="0,-1"
       id="guide903" />
    <sodipodi:guide
       position="0,512"
       orientation="-1,0"
       id="guide987"
       inkscape:label=""
       inkscape:locked="false"
       inkscape:color="rgb(0,0,255)" />
  </sodipodi:namedview>
  <path
     id="rect3079"
     style="fill:#000000;stroke:none;stroke-width:0;stroke-miterlimit:4;stroke-dasharray:none;stroke-opacity:1"
     d="M 48,32 C 21.408,32 0,53.408 0,80 v 352 c 0,26.592 21.408,48 48,48 h 352 c 26.592,0 48,-21.408 48,-48 V 80 C 448,53.408 426.592,32 400,32 Z m 173.4375,80 c 56.90832,0.1031 114.67114,7.93542 151.31252,23.125 23.42441,11.95423 76.91622,72.38433 75.18749,76.375 -1.75488,3.98176 -27.24461,26.06172 -34.93751,34.75 -16.70739,39.69224 -31.7767,68.15117 -37.18749,36.5 -6.15114,38.06577 -19.35753,34.71762 -24.5,53.3125 -7.50451,38.25932 -29.07306,39.54576 -38.87501,46.68751 -8.98944,9.30564 -21.87218,3.97082 -31.81251,9.24999 -25.24818,9.75213 -84.90433,11.42954 -108.74999,0.31251 -12.75571,-5.69197 -19.12017,3.15853 -55.125,-22.37501 C 97.568301,350.19267 102.95218,341.2663 96.312501,328 85.350259,308.43068 81.513443,321.15854 73.062499,277.4375 70.50282,312.736 52.08391,293.87197 35.124998,246.0625 c 0,0 -33.333762,-30.6255 -35.062498,-34.5625 C -1.69206,207.50933 51.7996,147.07923 75.25,135.125 108.49181,119.52303 164.52917,111.89691 221.4375,112 Z m 7.8125,10.25 c -44.1691,-0.45952 -86.64839,5.42839 -102.8125,13.5625 -11.58256,15.83751 -30.321708,42.74024 -34.125,55.625 -4.019295,13.81533 -7.69146,61.34157 -11.0625,89.4375 2.77856,26.7248 22.2202,38.53986 25.125,52.6875 3.1088,22.77475 13.18906,30.53107 27.125,38.31251 -3.11168,-8.85824 -4.9375,-22.29517 -4.9375,-42.87501 -5.81014,-42.47121 34.08671,-78.58204 66.37501,-89 8.92668,-24.53056 57.1767,-22.28311 64.18749,0.25 35.91808,12.59372 69.85538,52.60922 64.25001,89.3125 0,19.05872 -1.63286,31.94566 -4.31251,40.62499 30.66748,-20.8318 17.23648,-27.53404 29.4375,-47.56249 11.51481,-20.3415 13.86272,-12.90675 19.81252,-40.4375 -3.56123,-27.55906 -7.05982,-76.41517 -11.31252,-91 -3.71676,-12.52684 -21.65012,-38.56404 -33.24998,-54.5 C 299.0028,126.79931 263.60374,122.60741 229.25,122.25 Z M 129.8125,197 c 15.86998,0.3096 30.3125,13.55217 30.3125,31.875 0,24.43045 -25.71921,39.77773 -46.1875,27.5625 -20.468189,-12.21519 -20.468189,-42.90981 0,-55.125 5.11707,-3.0538 10.585,-4.4157 15.875,-4.3125 z M 322.5,197 c 15.86995,0.3096 30.31251,13.55214 30.31251,31.875 0,24.43042 -25.71929,39.77773 -46.18751,27.5625 -20.46819,-12.21519 -20.46819,-42.90981 0,-55.125 5.11706,-3.0538 10.58501,-4.4157 15.875,-4.3125 z m -185,9.375 c -1.38194,-0.0269 -2.78824,0.32723 -4.125,1.125 -5.34704,3.19098 -5.34704,11.24645 0,14.4375 5.34704,3.19098 12.0625,-0.86799 12.0625,-7.25 0,-4.78659 -3.7917,-8.23162 -7.9375,-8.3125 z m 176.625,0 c -1.38194,-0.0269 -2.78824,0.32724 -4.125,1.125 -5.34704,3.19098 -5.34704,11.24645 0,14.4375 5.34704,3.19098 12.06249,-0.86798 12.06249,-7.25 0,-4.7866 -3.79168,-8.23162 -7.93749,-8.3125 z m -87.5,23.1875 c -23.0649,0.20544 -39.2647,22.16574 -3.875,26 v 38.0625 c -15.38582,0 -35.6875,22.00585 -35.6875,48.4375 2.39776,-26.52348 22.38807,-40.25842 40.625,-39.6875 17.76445,0.55619 33.77394,14.77723 37.68751,40.25 0,-25.94846 -20.55172,-47.5151 -35.93751,-48.8125 l 0.93751,-38.1875 c 29.72345,-1.95575 26.26589,-24.48217 -3.75001,-26.0625 z" />
</svg>
