<?xml version="1.0" encoding="UTF-8" standalone="no"?>
<!-- Created with Inkscape (http://www.inkscape.org/) -->

<svg
   width="90.000191mm"
   height="26.416992mm"
   viewBox="0 0 90.000191 26.416992"
   version="1.1"
   id="svg5"
   inkscape:version="1.1.1 (3bf5ae0d25, 2021-09-20)"
   sodipodi:docname="redeyes.svg"
   xmlns:inkscape="http://www.inkscape.org/namespaces/inkscape"
   xmlns:sodipodi="http://sodipodi.sourceforge.net/DTD/sodipodi-0.dtd"
   xmlns="http://www.w3.org/2000/svg"
   xmlns:svg="http://www.w3.org/2000/svg">
  <sodipodi:namedview
     id="namedview7"
     pagecolor="#ffffff"
     bordercolor="#111111"
     borderopacity="1"
     inkscape:pageshadow="0"
     inkscape:pageopacity="0"
     inkscape:pagecheckerboard="1"
     inkscape:document-units="mm"
     showgrid="false"
     inkscape:zoom="1.4110391"
     inkscape:cx="232.80715"
     inkscape:cy="7.4413245"
     inkscape:window-width="1360"
     inkscape:window-height="745"
     inkscape:window-x="-8"
     inkscape:window-y="-8"
     inkscape:window-maximized="1"
     inkscape:current-layer="layer1"
     showguides="true"
     inkscape:guide-bbox="true" />
  <defs
     id="defs2" />
  <g
     inkscape:label="Слой 1"
     inkscape:groupmode="layer"
     id="layer1"
     transform="translate(0,-23.583056)">
    <path
       id="rect1206"
       style="fill:#000705;fill-opacity:1;stroke-width:0.999999"
       d="M 0,89.132812 V 188.97656 H 340.1582 V 89.132812 Z"
       transform="scale(0.26458333)" />
    <path
       id="path846"
       style="fill:#640a25;fill-opacity:1;stroke-width:1.49645"
       d="M 0.234375,89.132812 A 94.488189,94.488189 0 0 0 0,94.488281 94.488189,94.488189 0 0 0 94.488281,188.97656 94.488189,94.488189 0 0 0 188.97656,94.488281 94.488189,94.488189 0 0 0 188.82227,89.132812 Z"
       transform="scale(0.26458333)" />
    <path
       id="path846-5"
       style="fill:#640a25;fill-opacity:1;stroke-width:1.49645"
       d="m 151.41602,89.132812 a 94.488189,94.488189 0 0 0 -0.23438,5.355469 94.488189,94.488189 0 0 0 94.48828,94.488279 94.488189,94.488189 0 0 0 94.48828,-94.488279 94.488189,94.488189 0 0 0 -0.15625,-5.355469 z"
       transform="scale(0.26458333)" />
    <path
       id="path1102"
       style="fill:#000705;fill-opacity:1;stroke-width:0.508114"
       d="M 0.06201172,11.582755 V 23.583056 A 55,55 0 0 0 45.061846,47.000231 55,55 0 0 0 90.0622,23.582539 V 11.582755 Z" />
  </g>
</svg>
