<?xml version="1.0" encoding="UTF-8" standalone="no"?>
<!-- Created with Inkscape (http://www.inkscape.org/) -->

<svg
   width="23.812498mm"
   height="10.164498mm"
   viewBox="0 0 23.812498 10.164498"
   version="1.1"
   id="svg5"
   inkscape:version="1.1.1 (3bf5ae0d25, 2021-09-20)"
   sodipodi:docname="red-eyes.svg"
   xmlns:inkscape="http://www.inkscape.org/namespaces/inkscape"
   xmlns:sodipodi="http://sodipodi.sourceforge.net/DTD/sodipodi-0.dtd"
   xmlns="http://www.w3.org/2000/svg"
   xmlns:svg="http://www.w3.org/2000/svg">
  <sodipodi:namedview
     id="namedview7"
     pagecolor="#ffffff"
     bordercolor="#111111"
     borderopacity="1"
     inkscape:pageshadow="0"
     inkscape:pageopacity="0"
     inkscape:pagecheckerboard="1"
     inkscape:document-units="mm"
     showgrid="false"
     inkscape:zoom="3.9910213"
     inkscape:cx="25.432087"
     inkscape:cy="30.944461"
     inkscape:window-width="1360"
     inkscape:window-height="745"
     inkscape:window-x="-8"
     inkscape:window-y="-8"
     inkscape:window-maximized="1"
     inkscape:current-layer="layer1"
     showguides="true"
     inkscape:guide-bbox="true" />
  <defs
     id="defs2" />
  <g
     inkscape:label="Слой 1"
     inkscape:groupmode="layer"
     id="layer1"
     transform="translate(0,-20.408056)">
    <path
       id="rect1206"
       style="fill:#000705;fill-opacity:1;stroke-width:0.0700038"
       d="m 0,23.583111 v 6.989443 h 23.812499 v -6.989443 z" />
    <path
       id="path846"
       style="fill:#640a25;fill-opacity:1;stroke-width:0.104758"
       d="M 0.01640723,23.583111 A 6.6145692,6.6145329 0 0 0 0,23.958015 a 6.6145692,6.6145329 0 0 0 6.6145756,6.614539 6.6145692,6.6145329 0 0 0 6.6145754,-6.614539 6.6145692,6.6145329 0 0 0 -0.0108,-0.374904 z" />
    <path
       id="path846-5"
       style="fill:#640a25;fill-opacity:1;stroke-width:0.104758"
       d="m 10.599756,23.583111 a 6.6145692,6.6145329 0 0 0 -0.01641,0.374904 6.6145692,6.6145329 0 0 0 6.614576,6.614539 6.6145692,6.6145329 0 0 0 6.614575,-6.614539 6.6145692,6.6145329 0 0 0 -0.01094,-0.374904 z" />
    <path
       id="path1102"
       style="fill:#000705;fill-opacity:1;stroke-width:0.134438"
       d="m 0,20.408056 v 3.175055 a 14.552052,14.551972 0 0 0 11.906181,6.195747 14.552052,14.551972 0 0 0 11.906318,-6.195883 v -3.174919 z" />
  </g>
</svg>
