<?xml version="1.0" encoding="UTF-8" standalone="no"?>
<svg
   version="1.1"
   width="448"
   height="512"
   id="svg4"
   sodipodi:docname="sqlite_icon_512.svg"
   inkscape:version="1.1.1 (3bf5ae0d25, 2021-09-20)"
   xmlns:inkscape="http://www.inkscape.org/namespaces/inkscape"
   xmlns:sodipodi="http://sodipodi.sourceforge.net/DTD/sodipodi-0.dtd"
   xmlns="http://www.w3.org/2000/svg"
   xmlns:svg="http://www.w3.org/2000/svg">
  <defs
     id="defs8" />
  <sodipodi:namedview
     id="namedview6"
     pagecolor="#ffffff"
     bordercolor="#111111"
     borderopacity="1"
     inkscape:pageshadow="0"
     inkscape:pageopacity="0"
     inkscape:pagecheckerboard="1"
     showgrid="false"
     showguides="true"
     inkscape:guide-bbox="true"
     inkscape:zoom="0.77339804"
     inkscape:cx="142.87598"
     inkscape:cy="166.14989"
     inkscape:window-width="1360"
     inkscape:window-height="745"
     inkscape:window-x="-8"
     inkscape:window-y="-8"
     inkscape:window-maximized="1"
     inkscape:current-layer="svg4">
    <sodipodi:guide
       position="0,512"
       orientation="0,1"
       id="guide947"
       inkscape:label=""
       inkscape:locked="false"
       inkscape:color="rgb(0,0,255)" />
  </sodipodi:namedview>
  <path
     id="rect847"
     style="fill:#000000;stroke-width:1.10583"
     d="M 48,32 C 21.408,32 0,53.408 0,80 v 352 c 0,26.592 21.408,48 48,48 h 203.875 c -2.58992,-6.43747 -7.53329,-42.15292 -7.875,-82.4375 -0.2048,-2.58944 -0.3125,-4.24998 -0.3125,-4.24998 0,0 -3.76401,-25.39204 -9.1875,-46.25002 -2.40096,-9.25873 -5.12935,-17.64787 -8,-22.5 -1.47872,-2.50407 0.12568,-12.76676 4.25,-28 6.99014,12.1702 14.54083,25.34477 17.4375,36.125 0,0 -5.58523,-28.79402 -14.75,-45.5625 2.00896,-6.77939 4.40964,-14.2402 7.125,-22.25 6.7592,11.8201 13.62496,23.0461 16.375,34.3125 -3.00768,-14.39298 -7.03241,-28.72858 -13.375,-42.9375 C 255.09108,196.25753 292.21041,117.72154 332.18748,75.312499 353.52512,52.542957 382.89303,32.184088 409.12499,54.875 456.84999,97.449072 409.4993,194.73839 366,263.25 c -31.63008,10.16552 -68.5,32.625 -68.5,32.625 0,0 3.056,-1.60068 14.4375,-6.375 7.71564,-3.24264 30.72122,-8.7379 44.74998,-11.9375 -23.41951,35.31002 -43.43748,59.99999 -43.43748,59.99999 0,0 -40.86304,16.62279 -53.5,55.25002 7.32461,-41.20268 19.47559,-84.17255 36.625,-130.00001 C 311.69148,221.88846 362.82163,111.32851 400.62499,77.187501 359.14858,110.24523 313.8507,179.4756 281.1875,265.75 c -19.33389,57.15196 -29.79616,112.03092 -31.5,157.49998 3.65911,36.11917 4.22015,52.83626 3.37499,56.75002 H 400 c 26.592,0 48,-21.408 48,-48 V 80 C 448,53.408 426.592,32 400,32 Z m 9,33.1875 H 317.43751 C 277.55033,107.50003 238.03375,187.76926 225.3125,252.125 L 212.5,292.8125 c -6.8377,25.24346 -6.28027,33.1888 -2.8125,39.0625 0.85632,1.44317 3.16576,6.12823 6.4375,18.75 4.74995,18.26847 8.96023,45.86761 9.0625,47.18751 -0.68736,16.86026 -0.30198,34.70791 1.0625,51.81249 H 57 c -19.137373,0 -34.8125,-15.61457 -34.8125,-34.74999 V 99.937501 C 22.1875,80.800851 37.862627,65.1875 57,65.1875 Z" />
</svg>
