<?xml version="1.0" encoding="UTF-8" standalone="no"?>
<!-- Created with Inkscape (http://www.inkscape.org/) -->

<svg
   width="23.812498mm"
   height="6.9894428mm"
   viewBox="0 0 23.812498 6.9894426"
   version="1.1"
   id="red-eyes__svg"
   inkscape:version="1.1.1 (3bf5ae0d25, 2021-09-20)"
   sodipodi:docname="red-eyes.svg"
   xmlns:inkscape="http://www.inkscape.org/namespaces/inkscape"
   xmlns:sodipodi="http://sodipodi.sourceforge.net/DTD/sodipodi-0.dtd"
   xmlns="http://www.w3.org/2000/svg"
   xmlns:svg="http://www.w3.org/2000/svg">
  <sodipodi:namedview
     id="namedview7"
     pagecolor="#ffffff"
     bordercolor="#111111"
     borderopacity="1"
     inkscape:pageshadow="0"
     inkscape:pageopacity="0"
     inkscape:pagecheckerboard="1"
     inkscape:document-units="mm"
     showgrid="false"
     inkscape:zoom="3.9910213"
     inkscape:cx="25.432087"
     inkscape:cy="30.94446"
     inkscape:window-width="1360"
     inkscape:window-height="745"
     inkscape:window-x="-8"
     inkscape:window-y="-8"
     inkscape:window-maximized="1"
     inkscape:current-layer="layer1"
     showguides="true"
     inkscape:guide-bbox="true" />
  <defs
     id="defs2" />
  <g
     inkscape:label="Слой 1"
     inkscape:groupmode="layer"
     id="layer1"
     transform="translate(0,-20.408111)">
    <path
       id="red-eyes__background"
       style="fill:#000705;fill-opacity:1;stroke-width:0.0700038"
       d="m 0,20.408111 v 6.989443 h 23.812499 v -6.989443 z" />
    <path
       id="red-eyes__item"
       style="fill:#640a25;fill-opacity:1;stroke-width:0.395936"
       d="M 0.0625 0 A 24.999947 24.999809 0 0 0 0 1.4160156 A 24.999947 24.999809 0 0 0 25 26.416016 A 24.999947 24.999809 0 0 0 45.007812 16.402344 A 24.999947 24.999809 0 0 0 65 26.416016 A 24.999947 24.999809 0 0 0 90 1.4160156 A 24.999947 24.999809 0 0 0 89.958984 0 L 49.958984 0 L 40.0625 0 L 0.0625 0 z "
       transform="matrix(0.26458333,0,0,0.26458333,0,20.408111)" />
    <path
       id="red-eyes__coverage"
       style="fill:#000705;fill-opacity:1;stroke-width:0.134438"
       d="m 0,17.233056 v 3.175055 a 14.552052,14.551972 0 0 0 11.906181,6.195747 14.552052,14.551972 0 0 0 11.906318,-6.195883 v -3.174919 z" />
  </g>
</svg>
